
<svg width="560px" height="560px" viewBox="0 0 560 560" version="1.1" xmlns="http://www.w3.org/2000/svg" xmlns:xlink="http://www.w3.org/1999/xlink">
    <g id="Questions" stroke="none" stroke-width="1" fill="none" fill-rule="evenodd">
        <g id="Desktop-HD-Question-6" transform="translate(-180.000000, -264.000000)">
            <g id="Console" transform="translate(180.000000, 264.000000)">
                <g id="Example-Box" transform="translate(400.000000, 400.000000)" stroke="#0880CB" stroke-width="3">
                    <rect id="Rectangle" x="1.5" y="1.5" width="157" height="157"></rect>
                </g>
                <text id="Question" font-family="Roboto-Regular, Roboto" font-size="100" font-weight="normal" fill="#0880CB">
                    <tspan x="456" y="519">?</tspan>
                </text>
                <g id="Example-Box" transform="translate(200.000000, 400.000000)" stroke="#0880CB" stroke-width="3">
                    <rect id="Rectangle" x="1.5" y="1.5" width="157" height="157"></rect>
                </g>
                <g id="Option-8" transform="translate(279.771338, 479.771338) rotate(-45.000000) translate(-279.771338, -479.771338) translate(229.271338, 428.771338)">
                    <rect id="Rectangle" stroke="#0880CB" stroke-width="5" fill="#FFFFFF" x="0" y="2" width="100" height="100"></rect>
                    <rect id="Rectangle" fill="#0880CB" x="50.6604256" y="0.837049096" width="50" height="50"></rect>
                    <path d="M50,102 L50,2" id="Path-4" stroke="#0880CB" stroke-width="5"></path>
                    <path d="M100,52 L9.09494702e-13,52" id="Path-5" stroke="#0880CB" stroke-width="5"></path>
                </g>
                <g id="Example-Box" transform="translate(0.000000, 400.000000)" stroke="#0880CB" stroke-width="3">
                    <rect id="Rectangle" x="1.5" y="1.5" width="157" height="157"></rect>
                </g>
                <g id="Option-7" transform="translate(80.710678, 480.710678) rotate(-45.000000) translate(-80.710678, -480.710678) translate(30.710678, 430.710678)">
                    <rect id="Rectangle" stroke="#0880CB" stroke-width="5" fill="#FFFFFF" x="0" y="0" width="100" height="100"></rect>
                    <rect id="Rectangle" fill="#0880CB" x="0" y="0" width="50" height="50"></rect>
                    <path d="M50,100 L50,0" id="Path-4" stroke="#0880CB" stroke-width="5"></path>
                    <path d="M100,50 L0,50" id="Path-5" stroke="#0880CB" stroke-width="5"></path>
                </g>
                <g id="Example-Box" transform="translate(400.000000, 200.000000)" stroke="#0880CB" stroke-width="3">
                    <rect id="Rectangle" x="1.5" y="1.5" width="157" height="157"></rect>
                </g>
                <g id="Option-6" transform="translate(429.000000, 230.000000)" stroke="#0880CB" stroke-width="5">
                    <circle id="Oval" fill="#FFFFFF" cx="51" cy="50" r="50"></circle>
                    <path d="M51,100 C51,72.3857625 73.3857625,50 101,50 L101,100 L51,100 Z" id="Combined-Shape" fill="#0880CB" transform="translate(76.000000, 75.000000) scale(-1, -1) translate(-76.000000, -75.000000) "></path>
                    <path d="M51,100 L51,0" id="Path-7"></path>
                    <path d="M1,50 L101,50" id="Path-7-Copy"></path>
                </g>
                <g id="Example-Box" transform="translate(200.000000, 200.000000)" stroke="#0880CB" stroke-width="3">
                    <rect id="Rectangle" x="1.5" y="1.5" width="157" height="157"></rect>
                </g>
                <g id="Option-5" transform="translate(230.000000, 230.000000)" stroke="#0880CB" stroke-width="5">
                    <circle id="Oval-Copy-3" fill="#FFFFFF" cx="51" cy="50" r="50"></circle>
                    <path d="M51,50 C51,22.3857625 73.3857625,0 101,0 L101,50 L51,50 Z" id="Combined-Shape-Copy" fill="#0880CB" transform="translate(76.000000, 25.000000) scale(-1, 1) translate(-76.000000, -25.000000) "></path>
                    <path d="M51,100 L51,0" id="Path-7-Copy-2"></path>
                    <path d="M1,50 L101,50" id="Path-7-Copy-3"></path>
                </g>
                <g id="Example-Box" transform="translate(0.000000, 200.000000)" stroke="#0880CB" stroke-width="3">
                    <rect id="Rectangle" x="1.5" y="1.5" width="157" height="157"></rect>
                </g>
                <g id="Option-4" transform="translate(30.000000, 230.000000)" stroke="#0880CB" stroke-width="5">
                    <circle id="Oval" fill="#FFFFFF" cx="51" cy="50" r="50"></circle>
                    <path d="M1,50 C1,22.3857625 23.3857625,0 51,0 L51,50 L1,50 Z" id="Combined-Shape" fill="#0880CB"></path>
                    <path d="M51,100 L51,0" id="Path-7"></path>
                    <path d="M1,50 L101,50" id="Path-7-Copy"></path>
                </g>
                <g id="Example-Box" transform="translate(400.000000, 0.000000)" stroke="#0880CB" stroke-width="3">
                    <rect id="Rectangle" x="1.5" y="1.5" width="157" height="157"></rect>
                </g>
                <g id="Option-3" transform="translate(431.000000, 30.000000)">
                    <rect id="Rectangle" stroke="#0880CB" stroke-width="5" fill="#FFFFFF" x="0" y="0" width="100" height="100"></rect>
                    <rect id="Rectangle" fill="#0880CB" x="50" y="50" width="50" height="50"></rect>
                    <path d="M50,100 L50,0" id="Path-4" stroke="#0880CB" stroke-width="5"></path>
                    <path d="M100,50 L0,50" id="Path-5" stroke="#0880CB" stroke-width="5"></path>
                </g>
                <g id="Example-Box" transform="translate(200.000000, 0.000000)" stroke="#0880CB" stroke-width="3">
                    <rect id="Rectangle" x="1.5" y="1.5" width="157" height="157"></rect>
                </g>
                <g id="Option-2" transform="translate(230.000000, 30.000000)">
                    <rect id="Rectangle" stroke="#0880CB" stroke-width="5" fill="#FFFFFF" x="0" y="0" width="100" height="100"></rect>
                    <rect id="Rectangle" fill="#0880CB" x="50" y="0" width="50" height="50"></rect>
                    <path d="M50,100 L50,0" id="Path-4" stroke="#0880CB" stroke-width="5"></path>
                    <path d="M100,50 L0,50" id="Path-5" stroke="#0880CB" stroke-width="5"></path>
                </g>
                <g id="Example-Box" stroke="#0880CB" stroke-width="3">
                    <rect id="Rectangle" x="1.5" y="1.5" width="157" height="157"></rect>
                </g>
                <g id="Option-1" transform="translate(30.000000, 30.000000)">
                    <rect id="Rectangle" stroke="#0880CB" stroke-width="5" fill="#FFFFFF" x="0" y="0" width="100" height="100"></rect>
                    <rect id="Rectangle" fill="#0880CB" x="0" y="0" width="50" height="50"></rect>
                    <path d="M50,100 L50,0" id="Path-4" stroke="#0880CB" stroke-width="5"></path>
                    <path d="M100,50 L0,50" id="Path-5" stroke="#0880CB" stroke-width="5"></path>
                </g>
            </g>
        </g>
    </g>
</svg>
