
<svg width="560px" height="560px" viewBox="0 0 560 560" version="1.1" xmlns="http://www.w3.org/2000/svg" xmlns:xlink="http://www.w3.org/1999/xlink">
    <g id="Questions" stroke="none" stroke-width="1" fill="none" fill-rule="evenodd">
        <g id="Desktop-HD-Question-8" transform="translate(-180.000000, -264.000000)">
            <g id="Console" transform="translate(180.000000, 264.000000)">
                <g id="Example-Box" transform="translate(400.000000, 400.000000)" stroke="#0880CB" stroke-width="3">
                    <rect id="Rectangle" x="1.5" y="1.5" width="157" height="157"></rect>
                </g>
                <text id="Question" font-family="Roboto-Regular, Roboto" font-size="100" font-weight="normal" fill="#0880CB">
                    <tspan x="456" y="519">?</tspan>
                </text>
                <g id="Example-Box" transform="translate(200.000000, 400.000000)" stroke="#0880CB" stroke-width="3">
                    <rect id="Rectangle" x="1.5" y="1.5" width="157" height="157"></rect>
                </g>
                <g id="Option-2-Copy-4" transform="translate(230.000000, 431.000000)">
                    <rect id="Rectangle" stroke="#0880CB" stroke-width="5" fill="#FFFFFF" x="0" y="0" width="100" height="100"></rect>
                    <rect id="Rectangle" fill="#0880CB" x="0" y="48" width="50" height="50"></rect>
                    <rect id="Rectangle" fill="#D8D8D8" x="48" y="2" width="50" height="50"></rect>
                    <path d="M50,100 L50,0" id="Path-4" stroke="#0880CB" stroke-width="5"></path>
                    <path d="M100,50 L0,50" id="Path-5" stroke="#0880CB" stroke-width="5"></path>
                </g>
                <g id="Example-Box" transform="translate(0.000000, 400.000000)" stroke="#0880CB" stroke-width="3">
                    <rect id="Rectangle" x="1.5" y="1.5" width="157" height="157"></rect>
                </g>
                <g id="Option-1-Copy-2" transform="translate(80.000000, 480.000000) rotate(180.000000) translate(-80.000000, -480.000000) translate(30.000000, 430.000000)">
                    <rect id="Rectangle" stroke="#0880CB" stroke-width="5" fill="#FFFFFF" x="0" y="0" width="100" height="100"></rect>
                    <rect id="Rectangle" fill="#0880CB" x="0" y="0" width="50" height="50"></rect>
                    <rect id="Rectangle" fill="#D8D8D8" x="48" y="48" width="50" height="50"></rect>
                    <path d="M50,100 L50,0" id="Path-4" stroke="#0880CB" stroke-width="5"></path>
                    <path d="M100,50 L0,50" id="Path-5" stroke="#0880CB" stroke-width="5"></path>
                </g>
                <g id="Example-Box" transform="translate(400.000000, 200.000000)" stroke="#0880CB" stroke-width="3">
                    <rect id="Rectangle" x="1.5" y="1.5" width="157" height="157"></rect>
                </g>
                <g id="Option-2-Copy-3" transform="translate(480.000000, 280.000000) rotate(360.000000) translate(-480.000000, -280.000000) translate(430.000000, 230.000000)">
                    <rect id="Rectangle" stroke="#0880CB" stroke-width="5" fill="#FFFFFF" x="0" y="0" width="100" height="100"></rect>
                    <rect id="Rectangle" fill="#0880CB" x="0" y="48" width="50" height="50"></rect>
                    <rect id="Rectangle" fill="#D8D8D8" x="48" y="2" width="50" height="50"></rect>
                    <path d="M50,100 L50,0" id="Path-4" stroke="#0880CB" stroke-width="5"></path>
                    <path d="M100,50 L0,50" id="Path-5" stroke="#0880CB" stroke-width="5"></path>
                </g>
                <g id="Example-Box" transform="translate(200.000000, 200.000000)" stroke="#0880CB" stroke-width="3">
                    <rect id="Rectangle" x="1.5" y="1.5" width="157" height="157"></rect>
                </g>
                <g id="Option-2-Copy-2" transform="translate(280.000000, 280.000000) rotate(270.000000) translate(-280.000000, -280.000000) translate(230.000000, 230.000000)">
                    <rect id="Rectangle" stroke="#0880CB" stroke-width="5" fill="#FFFFFF" x="0" y="0" width="100" height="100"></rect>
                    <rect id="Rectangle" fill="#0880CB" x="0" y="48" width="50" height="50"></rect>
                    <rect id="Rectangle" fill="#D8D8D8" x="48" y="2" width="50" height="50"></rect>
                    <path d="M50,100 L50,0" id="Path-4" stroke="#0880CB" stroke-width="5"></path>
                    <path d="M100,50 L0,50" id="Path-5" stroke="#0880CB" stroke-width="5"></path>
                </g>
                <g id="Example-Box" transform="translate(0.000000, 200.000000)" stroke="#0880CB" stroke-width="3">
                    <rect id="Rectangle" x="1.5" y="1.5" width="157" height="157"></rect>
                </g>
                <g id="Option-2-Copy" transform="translate(80.000000, 280.000000) rotate(180.000000) translate(-80.000000, -280.000000) translate(30.000000, 230.000000)">
                    <rect id="Rectangle" stroke="#0880CB" stroke-width="5" fill="#FFFFFF" x="0" y="0" width="100" height="100"></rect>
                    <rect id="Rectangle" fill="#0880CB" x="0" y="48" width="50" height="50"></rect>
                    <rect id="Rectangle" fill="#D8D8D8" x="48" y="2" width="50" height="50"></rect>
                    <path d="M50,100 L50,0" id="Path-4" stroke="#0880CB" stroke-width="5"></path>
                    <path d="M100,50 L0,50" id="Path-5" stroke="#0880CB" stroke-width="5"></path>
                </g>
                <g id="Example-Box" transform="translate(400.000000, 0.000000)" stroke="#0880CB" stroke-width="3">
                    <rect id="Rectangle" x="1.5" y="1.5" width="157" height="157"></rect>
                </g>
                <g id="Option-1-Copy" transform="translate(480.000000, 80.000000) rotate(180.000000) translate(-480.000000, -80.000000) translate(430.000000, 30.000000)">
                    <rect id="Rectangle" stroke="#0880CB" stroke-width="5" fill="#FFFFFF" x="0" y="0" width="100" height="100"></rect>
                    <rect id="Rectangle" fill="#0880CB" x="0" y="0" width="50" height="50"></rect>
                    <rect id="Rectangle" fill="#D8D8D8" x="48" y="48" width="50" height="50"></rect>
                    <path d="M50,100 L50,0" id="Path-4" stroke="#0880CB" stroke-width="5"></path>
                    <path d="M100,50 L0,50" id="Path-5" stroke="#0880CB" stroke-width="5"></path>
                </g>
                <g id="Example-Box" transform="translate(200.000000, 0.000000)" stroke="#0880CB" stroke-width="3">
                    <rect id="Rectangle" x="1.5" y="1.5" width="157" height="157"></rect>
                </g>
                <g id="Option-2" transform="translate(230.000000, 30.000000)">
                    <rect id="Rectangle" stroke="#0880CB" stroke-width="5" fill="#FFFFFF" x="0" y="0" width="100" height="100"></rect>
                    <rect id="Rectangle" fill="#0880CB" x="0" y="48" width="50" height="50"></rect>
                    <rect id="Rectangle" fill="#D8D8D8" x="48" y="2" width="50" height="50"></rect>
                    <path d="M50,100 L50,0" id="Path-4" stroke="#0880CB" stroke-width="5"></path>
                    <path d="M100,50 L0,50" id="Path-5" stroke="#0880CB" stroke-width="5"></path>
                </g>
                <g id="Example-Box" stroke="#0880CB" stroke-width="3">
                    <rect id="Rectangle" x="1.5" y="1.5" width="157" height="157"></rect>
                </g>
                <g id="Option-1" transform="translate(30.000000, 30.000000)">
                    <rect id="Rectangle" stroke="#0880CB" stroke-width="5" fill="#FFFFFF" x="0" y="0" width="100" height="100"></rect>
                    <rect id="Rectangle" fill="#0880CB" x="0" y="0" width="50" height="50"></rect>
                    <rect id="Rectangle" fill="#D8D8D8" x="48" y="48" width="50" height="50"></rect>
                    <path d="M50,100 L50,0" id="Path-4" stroke="#0880CB" stroke-width="5"></path>
                    <path d="M100,50 L0,50" id="Path-5" stroke="#0880CB" stroke-width="5"></path>
                </g>
            </g>
        </g>
    </g>
</svg>
