
<svg width="560px" height="560px" viewBox="0 0 560 560" version="1.1" xmlns="http://www.w3.org/2000/svg" xmlns:xlink="http://www.w3.org/1999/xlink">
    <g id="Questions" stroke="none" stroke-width="1" fill="none" fill-rule="evenodd">
        <g id="Desktop-HD-Question-15" transform="translate(-180.000000, -264.000000)">
            <g id="Console" transform="translate(180.000000, 264.000000)">
                <g id="Example-Box" transform="translate(400.000000, 400.000000)" stroke="#0880CB" stroke-width="3">
                    <rect id="Rectangle" x="1.5" y="1.5" width="157" height="157"></rect>
                </g>
                <text id="Question" font-family="Roboto-Regular, Roboto" font-size="100" font-weight="normal" fill="#0880CB">
                    <tspan x="456" y="519">?</tspan>
                </text>
                <g id="Example-Box" transform="translate(200.000000, 400.000000)" stroke="#0880CB" stroke-width="3">
                    <rect id="Rectangle" x="1.5" y="1.5" width="157" height="157"></rect>
                </g>
                <g id="Group-3" transform="translate(231.000000, 430.000000)" stroke="#0880CB" stroke-width="5">
                    <rect id="Rectangle-Copy" fill="#FFFFFF" x="0" y="0" width="100" height="100"></rect>
                    <polygon id="Triangle-Copy" points="50 0 100 100 0 100"></polygon>
                </g>
                <g id="Example-Box" transform="translate(0.000000, 400.000000)" stroke="#0880CB" stroke-width="3">
                    <rect id="Rectangle" x="1.5" y="1.5" width="157" height="157"></rect>
                </g>
                <g id="Group-2" transform="translate(29.000000, 430.000000)" stroke="#0880CB">
                    <polygon id="Star-Copy" stroke-width="5" points="50 75 20.6107374 90.4508497 26.2235871 57.7254249 2.44717419 34.5491503 35.3053687 29.7745751 50 0 64.6946313 29.7745751 97.5528258 34.5491503 73.7764129 57.7254249 79.3892626 90.4508497"></polygon>
                    <path d="M100.5,0 L0.5,100" id="Path-8-Copy" stroke-width="4"></path>
                    <path d="M0.5,0 L100.5,100" id="Path-8-Copy-2" stroke-width="4"></path>
                </g>
                <g id="Example-Box" transform="translate(400.000000, 200.000000)" stroke="#0880CB" stroke-width="3">
                    <rect id="Rectangle" x="1.5" y="1.5" width="157" height="157"></rect>
                </g>
                <polygon id="Triangle-Copy" stroke="#0880CB" stroke-width="5" points="479 229 529 329 429 329"></polygon>
                <g id="Example-Box" transform="translate(200.000000, 200.000000)" stroke="#0880CB" stroke-width="3">
                    <rect id="Rectangle" x="1.5" y="1.5" width="157" height="157"></rect>
                </g>
                <g id="Group" transform="translate(281.000000, 281.000000) rotate(45.000000) translate(-281.000000, -281.000000) translate(231.000000, 231.000000)" stroke="#0880CB" stroke-width="5">
                    <circle id="Oval" fill="#FFFFFF" cx="50" cy="50" r="50"></circle>
                    <path d="M50,99 L49,3.18323146e-12" id="Path"></path>
                    <path d="M0,50 L99,49" id="Path"></path>
                </g>
                <g id="Example-Box" transform="translate(0.000000, 200.000000)" stroke="#0880CB" stroke-width="3">
                    <rect id="Rectangle" x="1.5" y="1.5" width="157" height="157"></rect>
                </g>
                <g id="Group-16-Copy-2" transform="translate(430.000000, 30.000000)" stroke="#0880CB">
                    <rect id="Rectangle" stroke-width="5" fill="#FFFFFF" x="0" y="0" width="100" height="100"></rect>
                    <path d="M50,0 L50,100" id="Path-8" stroke-width="4"></path>
                    <path d="M100,50 L0,50" id="Path-8" stroke-width="4"></path>
                </g>
                <g id="Example-Box" transform="translate(400.000000, 0.000000)" stroke="#0880CB" stroke-width="3">
                    <rect id="Rectangle" x="1.5" y="1.5" width="157" height="157"></rect>
                </g>
                <g id="Group-16-Copy-5" transform="translate(27.000000, 229.000000)" stroke="#0880CB">
                    <rect id="Rectangle" stroke-width="5" fill="#FFFFFF" x="2" y="1" width="100" height="100"></rect>
                    <g id="Group-5" transform="translate(52.000000, 52.207107) rotate(45.000000) translate(-52.000000, -52.207107) translate(15.500000, 15.707107)" stroke-width="4">
                        <path d="M71.6435644,0.5 L0.356435644,71.5" id="Path-8"></path>
                        <path d="M0.709989034,0.353553391 L71.9971177,71.6406821" id="Path-8"></path>
                    </g>
                </g>
                <g id="Example-Box" transform="translate(200.000000, 0.000000)" stroke="#0880CB" stroke-width="3">
                    <rect id="Rectangle" x="1.5" y="1.5" width="157" height="157"></rect>
                </g>
                <path d="M280.5,130.003906 L280.5,30" id="Path-24" stroke="#0880CB" stroke-width="5"></path>
                <path d="M230,79.5 L330,79.5" id="Path-24" stroke="#0880CB" stroke-width="5"></path>
                <polygon id="Star" stroke="#0880CB" stroke-width="5" points="280 105 250.610737 120.45085 256.223587 87.7254249 232.447174 64.5491503 265.305369 59.7745751 280 30 294.694631 59.7745751 327.552826 64.5491503 303.776413 87.7254249 309.389263 120.45085"></polygon>
                <polygon id="Star-Copy" stroke="#0880CB" stroke-width="5" points="479 310 449.610737 325.45085 455.223587 292.725425 431.447174 269.54915 464.305369 264.774575 479 235 493.694631 264.774575 526.552826 269.54915 502.776413 292.725425 508.389263 325.45085"></polygon>
                <g id="Example-Box" stroke="#0880CB" stroke-width="3">
                    <rect id="Rectangle" x="1.5" y="1.5" width="157" height="157"></rect>
                </g>
                <g id="Group-26" transform="translate(30.000000, 30.000000)" stroke="#0880CB" stroke-width="5">
                    <circle id="Oval" cx="50" cy="50" r="50"></circle>
                    <polygon id="Triangle" points="50 0 100 100 0 100"></polygon>
                </g>
            </g>
        </g>
    </g>
</svg>
