
<svg width="560px" height="560px" viewBox="0 0 560 560" version="1.1" xmlns="http://www.w3.org/2000/svg" xmlns:xlink="http://www.w3.org/1999/xlink">
    <g id="Questions" stroke="none" stroke-width="1" fill="none" fill-rule="evenodd">
        <g id="Desktop-HD-Question-2" transform="translate(-180.000000, -264.000000)">
            <g id="Console" transform="translate(180.000000, 264.000000)">
                <g id="Example-Box" transform="translate(400.000000, 400.000000)" stroke="#0880CB" stroke-width="3">
                    <rect id="Rectangle" x="1.5" y="1.5" width="157" height="157"></rect>
                </g>
                <text id="Question" font-family="Roboto-Regular, Roboto" font-size="100" font-weight="normal" fill="#0880CB">
                    <tspan x="456" y="519">?</tspan>
                </text>
                <g id="Example-Box" transform="translate(200.000000, 400.000000)" stroke="#0880CB" stroke-width="3">
                    <rect id="Rectangle" x="1.5" y="1.5" width="157" height="157"></rect>
                </g>
                <g id="Option-Triangle" transform="translate(225.000000, 425.000000)">
                    <polygon id="Triangle" stroke="#0880CB" stroke-width="6" fill="#D8D8D8" points="55 0 110 110 0 110"></polygon>
                    <polygon id="Triangle" stroke="#0880CB" stroke-width="5" fill="#14FF00" points="55 -6.5 84 31.5 26 31.5"></polygon>
                    <circle id="Oval" stroke="#979797" stroke-width="1" fill="#FFEF00" cx="55" cy="54" r="12"></circle>
                    <circle id="Oval-Copy" stroke="#979797" stroke-width="1" fill="#FF0000" cx="38" cy="88" r="12"></circle>
                    <circle id="Oval-Copy-2" stroke="#979797" stroke-width="1" fill="#14FF00" cx="72" cy="88" r="12"></circle>
                </g>
                <g id="Example-Box" transform="translate(0.000000, 400.000000)" stroke="#0880CB" stroke-width="3">
                    <rect id="Rectangle" x="1.5" y="1.5" width="157" height="157"></rect>
                </g>
                <g id="Option-Triangle" transform="translate(25.000000, 425.000000)">
                    <polygon id="Triangle" stroke="#0880CB" stroke-width="6" fill="#D8D8D8" points="55 0 110 110 0 110"></polygon>
                    <polygon id="Triangle" stroke="#0880CB" stroke-width="5" fill="#FF0000" points="55 -6.5 84 31.5 26 31.5"></polygon>
                    <circle id="Oval" stroke="#979797" stroke-width="1" fill="#14FF00" cx="55" cy="54" r="12"></circle>
                    <circle id="Oval-Copy" stroke="#979797" stroke-width="1" fill="#FFEF00" cx="38" cy="88" r="12"></circle>
                    <circle id="Oval-Copy-2" stroke="#979797" stroke-width="1" fill="#FF0000" cx="72" cy="88" r="12"></circle>
                </g>
                <g id="Example-Box" transform="translate(400.000000, 200.000000)" stroke="#0880CB" stroke-width="3">
                    <rect id="Rectangle" x="1.5" y="1.5" width="157" height="157"></rect>
                </g>
                <g id="Option-Triangle" transform="translate(425.000000, 225.000000)">
                    <polygon id="Triangle" stroke="#0880CB" stroke-width="6" fill="#D8D8D8" points="55 0 110 110 0 110"></polygon>
                    <polygon id="Triangle" stroke="#0880CB" stroke-width="5" fill="#14FF00" points="55 -6.5 84 31.5 26 31.5"></polygon>
                    <circle id="Oval" stroke="#979797" stroke-width="1" fill="#14FF00" cx="55" cy="54" r="12"></circle>
                    <circle id="Oval-Copy" stroke="#979797" stroke-width="1" fill="#FFEF00" cx="38" cy="88" r="12"></circle>
                    <circle id="Oval-Copy-2" stroke="#979797" stroke-width="1" fill="#FF0000" cx="72" cy="88" r="12"></circle>
                </g>
                <g id="Example-Box" transform="translate(200.000000, 200.000000)" stroke="#0880CB" stroke-width="3">
                    <rect id="Rectangle" x="1.5" y="1.5" width="157" height="157"></rect>
                </g>
                <g id="Option-Triangle" transform="translate(225.000000, 225.000000)">
                    <polygon id="Triangle" stroke="#0880CB" stroke-width="6" fill="#D8D8D8" points="55 0 110 110 0 110"></polygon>
                    <polygon id="Triangle" stroke="#0880CB" stroke-width="5" fill="#FF0000" points="55 -6.5 84 31.5 26 31.5"></polygon>
                    <circle id="Oval" stroke="#979797" stroke-width="1" fill="#FF0000" cx="55" cy="54" r="12"></circle>
                    <circle id="Oval-Copy" stroke="#979797" stroke-width="1" fill="#14FF00" cx="38" cy="88" r="12"></circle>
                    <circle id="Oval-Copy-2" stroke="#979797" stroke-width="1" fill="#FFEF00" cx="72" cy="88" r="12"></circle>
                </g>
                <g id="Example-Box" transform="translate(0.000000, 200.000000)" stroke="#0880CB" stroke-width="3">
                    <rect id="Rectangle" x="1.5" y="1.5" width="157" height="157"></rect>
                </g>
                <g id="Option-Triangle" transform="translate(25.000000, 225.000000)">
                    <polygon id="Triangle" stroke="#0880CB" stroke-width="6" fill="#D8D8D8" points="55 0 110 110 0 110"></polygon>
                    <polygon id="Triangle" stroke="#0880CB" stroke-width="5" fill="#FFEF00" points="55 -6.5 84 31.5 26 31.5"></polygon>
                    <circle id="Oval" stroke="#979797" stroke-width="1" fill="#FFEF00" cx="55" cy="54" r="12"></circle>
                    <circle id="Oval-Copy" stroke="#979797" stroke-width="1" fill="#FF0000" cx="38" cy="88" r="12"></circle>
                    <circle id="Oval-Copy-2" stroke="#979797" stroke-width="1" fill="#14FF00" cx="72" cy="88" r="12"></circle>
                </g>
                <g id="Example-Box" transform="translate(400.000000, 0.000000)" stroke="#0880CB" stroke-width="3">
                    <rect id="Rectangle" x="1.5" y="1.5" width="157" height="157"></rect>
                </g>
                <g id="Option-Triangle" transform="translate(425.000000, 25.000000)">
                    <polygon id="Triangle" stroke="#0880CB" stroke-width="6" fill="#D8D8D8" points="55 0 110 110 0 110"></polygon>
                    <polygon id="Triangle" stroke="#0880CB" stroke-width="5" fill="#FF0000" points="55 -6.5 84 31.5 26 31.5"></polygon>
                    <circle id="Oval" stroke="#979797" stroke-width="1" fill="#FFEF00" cx="55" cy="54" r="12"></circle>
                    <circle id="Oval-Copy" stroke="#979797" stroke-width="1" fill="#FF0000" cx="38" cy="88" r="12"></circle>
                    <circle id="Oval-Copy-2" stroke="#979797" stroke-width="1" fill="#14FF00" cx="72" cy="88" r="12"></circle>
                </g>
                <g id="Example-Box" transform="translate(200.000000, 0.000000)" stroke="#0880CB" stroke-width="3">
                    <rect id="Rectangle" x="1.5" y="1.5" width="157" height="157"></rect>
                </g>
                <g id="Option-Triangle" transform="translate(225.000000, 25.000000)">
                    <polygon id="Triangle" stroke="#0880CB" stroke-width="6" fill="#D8D8D8" points="55 0 110 110 0 110"></polygon>
                    <polygon id="Triangle" stroke="#0880CB" stroke-width="5" fill="#FFEF00" points="55 -6.5 84 31.5 26 31.5"></polygon>
                    <circle id="Oval" stroke="#979797" stroke-width="1" fill="#14FF00" cx="55" cy="54" r="12"></circle>
                    <circle id="Oval-Copy" stroke="#979797" stroke-width="1" fill="#FFEF00" cx="38" cy="88" r="12"></circle>
                    <circle id="Oval-Copy-2" stroke="#979797" stroke-width="1" fill="#FF0000" cx="72" cy="88" r="12"></circle>
                </g>
                <g id="Example-Box" stroke="#0880CB" stroke-width="3">
                    <rect id="Rectangle" x="1.5" y="1.5" width="157" height="157"></rect>
                </g>
                <g id="Option-Triangle" transform="translate(25.000000, 25.000000)">
                    <polygon id="Triangle" stroke="#0880CB" stroke-width="6" fill="#D8D8D8" points="55 0 110 110 0 110"></polygon>
                    <polygon id="Triangle" stroke="#0880CB" stroke-width="5" fill="#14FF00" points="55 -6.5 84 31.5 26 31.5"></polygon>
                    <circle id="Oval" stroke="#979797" stroke-width="1" fill="#FF0000" cx="55" cy="54" r="12"></circle>
                    <circle id="Oval-Copy" stroke="#979797" stroke-width="1" fill="#14FF00" cx="38" cy="88" r="12"></circle>
                    <circle id="Oval-Copy-2" stroke="#979797" stroke-width="1" fill="#FFEF00" cx="72" cy="88" r="12"></circle>
                </g>
            </g>
        </g>
    </g>
</svg>
