
<svg width="560px" height="560px" viewBox="0 0 560 560" version="1.1" xmlns="http://www.w3.org/2000/svg" xmlns:xlink="http://www.w3.org/1999/xlink">
    <g id="Questions" stroke="none" stroke-width="1" fill="none" fill-rule="evenodd">
        <g id="Desktop-HD-Question-9" transform="translate(-180.000000, -264.000000)">
            <g id="Console" transform="translate(180.000000, 264.000000)">
                <g id="Example-Box" transform="translate(400.000000, 400.000000)" stroke="#0880CB" stroke-width="3">
                    <rect id="Rectangle" x="1.5" y="1.5" width="157" height="157"></rect>
                </g>
                <text id="Question" font-family="Roboto-Regular, Roboto" font-size="100" font-weight="normal" fill="#0880CB">
                    <tspan x="456" y="519">?</tspan>
                </text>
                <g id="Example-Box" transform="translate(200.000000, 400.000000)" stroke="#0880CB" stroke-width="3">
                    <rect id="Rectangle" x="1.5" y="1.5" width="157" height="157"></rect>
                </g>
                <g id="Group-16-Copy-7" transform="translate(230.000000, 431.000000)" stroke="#0880CB">
                    <rect id="Rectangle" stroke-width="5" fill="#FFFFFF" x="0" y="0" width="100" height="100"></rect>
                    <path d="M100,75 L0,75" id="Path-8-Copy" stroke-width="4"></path>
                </g>
                <g id="Example-Box" transform="translate(0.000000, 400.000000)" stroke="#0880CB" stroke-width="3">
                    <rect id="Rectangle" x="1.5" y="1.5" width="157" height="157"></rect>
                </g>
                <g id="Group-16-Copy-6" transform="translate(30.000000, 431.000000)" stroke="#0880CB">
                    <rect id="Rectangle" stroke-width="5" fill="#FFFFFF" x="0" y="0" width="100" height="100"></rect>
                    <path d="M100,25 L0,25" id="Path-8-Copy" stroke-width="4"></path>
                </g>
                <g id="Example-Box" transform="translate(400.000000, 200.000000)" stroke="#0880CB" stroke-width="3">
                    <rect id="Rectangle" x="1.5" y="1.5" width="157" height="157"></rect>
                </g>
                <g id="Group-16-Copy-5" transform="translate(429.000000, 230.000000)" stroke="#0880CB">
                    <rect id="Rectangle" stroke-width="5" fill="#FFFFFF" x="1" y="0" width="100" height="100"></rect>
                    <path d="M101,0 L1,100" id="Path-8" stroke-width="4"></path>
                    <path d="M1,0 L101,100" id="Path-8" stroke-width="4"></path>
                </g>
                <g id="Example-Box" transform="translate(200.000000, 200.000000)" stroke="#0880CB" stroke-width="3">
                    <rect id="Rectangle" x="1.5" y="1.5" width="157" height="157"></rect>
                </g>
                <g id="Group-16-Copy-4" transform="translate(229.000000, 230.000000)" stroke="#0880CB">
                    <rect id="Rectangle" stroke-width="5" fill="#FFFFFF" x="1" y="0" width="100" height="100"></rect>
                    <path d="M1,0 L101,100" id="Path-8" stroke-width="4"></path>
                </g>
                <g id="Example-Box" transform="translate(0.000000, 200.000000)" stroke="#0880CB" stroke-width="3">
                    <rect id="Rectangle" x="1.5" y="1.5" width="157" height="157"></rect>
                </g>
                <g id="Group-16-Copy-3" transform="translate(30.000000, 230.000000)" stroke="#0880CB">
                    <rect id="Rectangle" stroke-width="5" fill="#FFFFFF" x="1" y="0" width="100" height="100"></rect>
                    <path d="M101,0 L1,100" id="Path-8" stroke-width="4"></path>
                </g>
                <g id="Example-Box" transform="translate(400.000000, 0.000000)" stroke="#0880CB" stroke-width="3">
                    <rect id="Rectangle" x="1.5" y="1.5" width="157" height="157"></rect>
                </g>
                <g id="Group-16-Copy-2" transform="translate(430.000000, 30.000000)" stroke="#0880CB">
                    <rect id="Rectangle" stroke-width="5" fill="#FFFFFF" x="0" y="0" width="100" height="100"></rect>
                    <path d="M50,0 L50,100" id="Path-8" stroke-width="4"></path>
                    <path d="M100,50 L0,50" id="Path-8" stroke-width="4"></path>
                </g>
                <g id="Example-Box" transform="translate(200.000000, 0.000000)" stroke="#0880CB" stroke-width="3">
                    <rect id="Rectangle" x="1.5" y="1.5" width="157" height="157"></rect>
                </g>
                <g id="Group-16-Copy" transform="translate(230.000000, 30.000000)" stroke="#0880CB">
                    <rect id="Rectangle" stroke-width="5" fill="#FFFFFF" x="0" y="0" width="100" height="100"></rect>
                    <path d="M100,50 L0,50" id="Path-8" stroke-width="4"></path>
                </g>
                <g id="Example-Box" stroke="#0880CB" stroke-width="3">
                    <rect id="Rectangle" x="1.5" y="1.5" width="157" height="157"></rect>
                </g>
                <g id="Group-16" transform="translate(30.000000, 30.000000)" stroke="#0880CB">
                    <rect id="Rectangle" stroke-width="5" fill="#FFFFFF" x="0" y="0" width="100" height="100"></rect>
                    <path d="M50,0 L50,100" id="Path-8" stroke-width="4"></path>
                </g>
            </g>
        </g>
    </g>
</svg>
