
<svg width="560px" height="560px" viewBox="0 0 560 560" version="1.1" xmlns="http://www.w3.org/2000/svg" xmlns:xlink="http://www.w3.org/1999/xlink">
    <g id="Questions" stroke="none" stroke-width="1" fill="none" fill-rule="evenodd">
        <g id="Desktop-HD-Question-20" transform="translate(-180.000000, -264.000000)">
            <g id="Console" transform="translate(180.000000, 264.000000)">
                <g id="Example-Box" transform="translate(400.000000, 400.000000)" stroke="#0880CB" stroke-width="3">
                    <rect id="Rectangle" x="1.5" y="1.5" width="157" height="157"></rect>
                </g>
                <text id="Question" font-family="Roboto-Regular, Roboto" font-size="100" font-weight="normal" fill="#0880CB">
                    <tspan x="456" y="519">?</tspan>
                </text>
                <g id="Example-Box" transform="translate(200.000000, 400.000000)" stroke="#0880CB" stroke-width="3">
                    <rect id="Rectangle" x="1.5" y="1.5" width="157" height="157"></rect>
                </g>
                <g id="Group-37-Copy-7" transform="translate(280.000000, 480.000000) scale(-1, 1) rotate(90.000000) translate(-280.000000, -480.000000) translate(230.000000, 430.000000)" stroke="#0880CB">
                    <circle id="Oval" stroke-width="5" fill="#FFFFFF" cx="50" cy="50" r="50"></circle>
                    <rect id="Rectangle" stroke-width="2" x="28" y="28" width="44" height="44"></rect>
                    <path d="M72,28 L85.7431641,14.2568359" id="Path-31" stroke-width="2"></path>
                    <path d="M14,85.7431641 L27.7431641,72" id="Path-31-Copy" stroke-width="2"></path>
                    <path d="M72,85.7431641 L85.7431641,72" id="Path-31-Copy-2" stroke-width="2" transform="translate(78.871582, 78.871582) scale(-1, 1) translate(-78.871582, -78.871582) "></path>
                    <path d="M14,27.7431641 L27.7431641,14" id="Path-31-Copy-3" stroke-width="2" transform="translate(20.871582, 20.871582) scale(-1, 1) translate(-20.871582, -20.871582) "></path>
                    <polygon id="Path-33" stroke-width="2" fill="#0880CB" points="14 14 27.7431641 27.7431641 27.7431641 72 14 85.7431641 3.58544922 70.1123047 1.77635684e-15 52.7275391 0.806640625 40.753418 4.51806641 28.5170898 9.79980469 19.4287109"></polygon>
                    <polygon id="Path-33-Copy-3" stroke-width="2" fill="#0880CB" transform="translate(50.128418, 86.128418) scale(-1, -1) rotate(90.000000) translate(-50.128418, -86.128418) " points="50.2568359 50.2568359 64 64 64 108.256836 50.2568359 122 39.8422852 106.369141 36.2568359 88.984375 37.0634766 77.0102539 40.7749023 64.7739258 46.0566406 55.6855469"></polygon>
                </g>
                <g id="Example-Box" transform="translate(0.000000, 400.000000)" stroke="#0880CB" stroke-width="3">
                    <rect id="Rectangle" x="1.5" y="1.5" width="157" height="157"></rect>
                </g>
                <g id="Group-37-Copy-6" transform="translate(80.000000, 481.000000) scale(1, -1) rotate(90.000000) translate(-80.000000, -481.000000) translate(30.000000, 431.000000)" stroke="#0880CB">
                    <circle id="Oval" stroke-width="5" fill="#FFFFFF" cx="50" cy="50" r="50"></circle>
                    <rect id="Rectangle" stroke-width="2" x="28" y="28" width="44" height="44"></rect>
                    <path d="M72,28 L85.7431641,14.2568359" id="Path-31" stroke-width="2"></path>
                    <path d="M14,85.7431641 L27.7431641,72" id="Path-31-Copy" stroke-width="2"></path>
                    <path d="M72,85.7431641 L85.7431641,72" id="Path-31-Copy-2" stroke-width="2" transform="translate(78.871582, 78.871582) scale(-1, 1) translate(-78.871582, -78.871582) "></path>
                    <path d="M14,27.7431641 L27.7431641,14" id="Path-31-Copy-3" stroke-width="2" transform="translate(20.871582, 20.871582) scale(-1, 1) translate(-20.871582, -20.871582) "></path>
                    <polygon id="Path-33" stroke-width="2" fill="#0880CB" points="14 14 27.7431641 27.7431641 27.7431641 72 14 85.7431641 3.58544922 70.1123047 1.77635684e-15 52.7275391 0.806640625 40.753418 4.51806641 28.5170898 9.79980469 19.4287109"></polygon>
                    <polygon id="Path-33-Copy-3" stroke-width="2" fill="#0880CB" transform="translate(50.128418, 86.128418) scale(-1, -1) rotate(90.000000) translate(-50.128418, -86.128418) " points="50.2568359 50.2568359 64 64 64 108.256836 50.2568359 122 39.8422852 106.369141 36.2568359 88.984375 37.0634766 77.0102539 40.7749023 64.7739258 46.0566406 55.6855469"></polygon>
                </g>
                <g id="Example-Box" transform="translate(400.000000, 200.000000)" stroke="#0880CB" stroke-width="3">
                    <rect id="Rectangle" x="1.5" y="1.5" width="157" height="157"></rect>
                </g>
                <g id="Example-Box" transform="translate(200.000000, 200.000000)" stroke="#0880CB" stroke-width="3">
                    <rect id="Rectangle" x="1.5" y="1.5" width="157" height="157"></rect>
                </g>
                <g id="Example-Box" transform="translate(0.000000, 200.000000)" stroke="#0880CB" stroke-width="3">
                    <rect id="Rectangle" x="1.5" y="1.5" width="157" height="157"></rect>
                </g>
                <g id="Group-37-Copy-3" transform="translate(80.000000, 280.000000) scale(1, -1) rotate(90.000000) translate(-80.000000, -280.000000) translate(30.000000, 230.000000)" stroke="#0880CB">
                    <circle id="Oval" stroke-width="5" fill="#FFFFFF" cx="50" cy="50" r="50"></circle>
                    <rect id="Rectangle" stroke-width="2" x="28" y="28" width="44" height="44"></rect>
                    <path d="M72,28 L85.7431641,14.2568359" id="Path-31" stroke-width="2"></path>
                    <path d="M14,85.7431641 L27.7431641,72" id="Path-31-Copy" stroke-width="2"></path>
                    <path d="M72,85.7431641 L85.7431641,72" id="Path-31-Copy-2" stroke-width="2" transform="translate(78.871582, 78.871582) scale(-1, 1) translate(-78.871582, -78.871582) "></path>
                    <path d="M14,27.7431641 L27.7431641,14" id="Path-31-Copy-3" stroke-width="2" transform="translate(20.871582, 20.871582) scale(-1, 1) translate(-20.871582, -20.871582) "></path>
                    <polygon id="Path-33" stroke-width="2" fill="#0880CB" points="14 14 27.7431641 27.7431641 27.7431641 72 14 85.7431641 3.58544922 70.1123047 1.77635684e-15 52.7275391 0.806640625 40.753418 4.51806641 28.5170898 9.79980469 19.4287109"></polygon>
                </g>
                <g id="Group-37-Copy-5" transform="translate(480.000000, 280.000000) scale(1, -1) rotate(90.000000) translate(-480.000000, -280.000000) translate(430.000000, 230.000000)" stroke="#0880CB">
                    <circle id="Oval" stroke-width="5" fill="#FFFFFF" cx="50" cy="50" r="50"></circle>
                    <rect id="Rectangle" stroke-width="2" x="28" y="28" width="44" height="44"></rect>
                    <path d="M72,28 L85.7431641,14.2568359" id="Path-31" stroke-width="2"></path>
                    <path d="M14,85.7431641 L27.7431641,72" id="Path-31-Copy" stroke-width="2"></path>
                    <path d="M72,85.7431641 L85.7431641,72" id="Path-31-Copy-2" stroke-width="2" transform="translate(78.871582, 78.871582) scale(-1, 1) translate(-78.871582, -78.871582) "></path>
                    <path d="M14,27.7431641 L27.7431641,14" id="Path-31-Copy-3" stroke-width="2" transform="translate(20.871582, 20.871582) scale(-1, 1) translate(-20.871582, -20.871582) "></path>
                    <polygon id="Path-33" stroke-width="2" fill="#0880CB" points="14 14 27.7431641 27.7431641 27.7431641 72 14 85.7431641 3.58544922 70.1123047 1.77635684e-15 52.7275391 0.806640625 40.753418 4.51806641 28.5170898 9.79980469 19.4287109"></polygon>
                    <polygon id="Path-33-Copy-2" stroke-width="2" fill="#0880CB" transform="translate(86.128418, 49.871582) scale(-1, -1) translate(-86.128418, -49.871582) " points="86.2568359 14 100 27.7431641 100 72 86.2568359 85.7431641 75.8422852 70.1123047 72.2568359 52.7275391 73.0634766 40.753418 76.7749023 28.5170898 82.0566406 19.4287109"></polygon>
                </g>
                <g id="Group-37-Copy-4" transform="translate(280.000000, 280.000000) rotate(90.000000) translate(-280.000000, -280.000000) translate(230.000000, 230.000000)" stroke="#0880CB">
                    <circle id="Oval" stroke-width="5" fill="#FFFFFF" cx="50" cy="50" r="50"></circle>
                    <rect id="Rectangle" stroke-width="2" x="28" y="28" width="44" height="44"></rect>
                    <path d="M72,28 L85.7431641,14.2568359" id="Path-31" stroke-width="2"></path>
                    <path d="M14,85.7431641 L27.7431641,72" id="Path-31-Copy" stroke-width="2"></path>
                    <path d="M72,85.7431641 L85.7431641,72" id="Path-31-Copy-2" stroke-width="2" transform="translate(78.871582, 78.871582) scale(-1, 1) translate(-78.871582, -78.871582) "></path>
                    <path d="M14,27.7431641 L27.7431641,14" id="Path-31-Copy-3" stroke-width="2" transform="translate(20.871582, 20.871582) scale(-1, 1) translate(-20.871582, -20.871582) "></path>
                    <polygon id="Path-33" stroke-width="2" fill="#0880CB" points="14 14 27.7431641 27.7431641 27.7431641 72 14 85.7431641 3.58544922 70.1123047 1.77635684e-15 52.7275391 0.806640625 40.753418 4.51806641 28.5170898 9.79980469 19.4287109"></polygon>
                </g>
                <g id="Example-Box" transform="translate(400.000000, 0.000000)" stroke="#0880CB" stroke-width="3">
                    <rect id="Rectangle" x="1.5" y="1.5" width="157" height="157"></rect>
                </g>
                <g id="Group-37-Copy-2" transform="translate(480.000000, 80.000000) scale(-1, 1) translate(-480.000000, -80.000000) translate(430.000000, 30.000000)" stroke="#0880CB">
                    <circle id="Oval" stroke-width="5" fill="#FFFFFF" cx="50" cy="50" r="50"></circle>
                    <rect id="Rectangle" stroke-width="2" x="28" y="28" width="44" height="44"></rect>
                    <path d="M72,28 L85.7431641,14.2568359" id="Path-31" stroke-width="2"></path>
                    <path d="M14,85.7431641 L27.7431641,72" id="Path-31-Copy" stroke-width="2"></path>
                    <path d="M72,85.7431641 L85.7431641,72" id="Path-31-Copy-2" stroke-width="2" transform="translate(78.871582, 78.871582) scale(-1, 1) translate(-78.871582, -78.871582) "></path>
                    <path d="M14,27.7431641 L27.7431641,14" id="Path-31-Copy-3" stroke-width="2" transform="translate(20.871582, 20.871582) scale(-1, 1) translate(-20.871582, -20.871582) "></path>
                    <polygon id="Path-33" stroke-width="2" fill="#0880CB" points="14 14 27.7431641 27.7431641 27.7431641 72 14 85.7431641 3.58544922 70.1123047 1.77635684e-15 52.7275391 0.806640625 40.753418 4.51806641 28.5170898 9.79980469 19.4287109"></polygon>
                    <polygon id="Path-33-Copy" stroke-width="2" fill="#0880CB" transform="translate(86.128418, 49.871582) scale(-1, 1) translate(-86.128418, -49.871582) " points="86.2568359 14 100 27.7431641 100 72 86.2568359 85.7431641 75.8422852 70.1123047 72.2568359 52.7275391 73.0634766 40.753418 76.7749023 28.5170898 82.0566406 19.4287109"></polygon>
                </g>
                <g id="Example-Box" transform="translate(200.000000, 0.000000)" stroke="#0880CB" stroke-width="3">
                    <rect id="Rectangle" x="1.5" y="1.5" width="157" height="157"></rect>
                </g>
                <g id="Group-37-Copy" transform="translate(280.000000, 80.000000) scale(-1, 1) translate(-280.000000, -80.000000) translate(230.000000, 30.000000)" stroke="#0880CB">
                    <circle id="Oval" stroke-width="5" fill="#FFFFFF" cx="50" cy="50" r="50"></circle>
                    <rect id="Rectangle" stroke-width="2" x="28" y="28" width="44" height="44"></rect>
                    <path d="M72,28 L85.7431641,14.2568359" id="Path-31" stroke-width="2"></path>
                    <path d="M14,85.7431641 L27.7431641,72" id="Path-31-Copy" stroke-width="2"></path>
                    <path d="M72,85.7431641 L85.7431641,72" id="Path-31-Copy-2" stroke-width="2" transform="translate(78.871582, 78.871582) scale(-1, 1) translate(-78.871582, -78.871582) "></path>
                    <path d="M14,27.7431641 L27.7431641,14" id="Path-31-Copy-3" stroke-width="2" transform="translate(20.871582, 20.871582) scale(-1, 1) translate(-20.871582, -20.871582) "></path>
                    <polygon id="Path-33" stroke-width="2" fill="#0880CB" points="14 14 27.7431641 27.7431641 27.7431641 72 14 85.7431641 3.58544922 70.1123047 1.77635684e-15 52.7275391 0.806640625 40.753418 4.51806641 28.5170898 9.79980469 19.4287109"></polygon>
                </g>
                <g id="Example-Box" stroke="#0880CB" stroke-width="3">
                    <rect id="Rectangle" x="1.5" y="1.5" width="157" height="157"></rect>
                </g>
                <g id="Group-37" transform="translate(30.000000, 30.000000)" stroke="#0880CB">
                    <circle id="Oval" stroke-width="5" fill="#FFFFFF" cx="50" cy="50" r="50"></circle>
                    <rect id="Rectangle" stroke-width="2" x="28" y="28" width="44" height="44"></rect>
                    <path d="M72,28 L85.7431641,14.2568359" id="Path-31" stroke-width="2"></path>
                    <path d="M14,85.7431641 L27.7431641,72" id="Path-31-Copy" stroke-width="2"></path>
                    <path d="M72,85.7431641 L85.7431641,72" id="Path-31-Copy-2" stroke-width="2" transform="translate(78.871582, 78.871582) scale(-1, 1) translate(-78.871582, -78.871582) "></path>
                    <path d="M14,27.7431641 L27.7431641,14" id="Path-31-Copy-3" stroke-width="2" transform="translate(20.871582, 20.871582) scale(-1, 1) translate(-20.871582, -20.871582) "></path>
                    <polygon id="Path-33" stroke-width="2" fill="#0880CB" points="14 14 27.7431641 27.7431641 27.7431641 72 14 85.7431641 3.58544922 70.1123047 1.77635684e-15 52.7275391 0.806640625 40.753418 4.51806641 28.5170898 9.79980469 19.4287109"></polygon>
                </g>
            </g>
        </g>
    </g>
</svg>
