
<svg width="560px" height="560px" viewBox="0 0 560 560" version="1.1" xmlns="http://www.w3.org/2000/svg" xmlns:xlink="http://www.w3.org/1999/xlink">
    <g id="Questions" stroke="none" stroke-width="1" fill="none" fill-rule="evenodd">
        <g id="Desktop-HD-Question-10" transform="translate(-180.000000, -264.000000)">
            <g id="Console" transform="translate(180.000000, 264.000000)">
                <g id="Example-Box" transform="translate(400.000000, 400.000000)" stroke="#0880CB" stroke-width="3">
                    <rect id="Rectangle" x="1.5" y="1.5" width="157" height="157"></rect>
                </g>
                <text id="Question" font-family="Roboto-Regular, Roboto" font-size="100" font-weight="normal" fill="#0880CB">
                    <tspan x="456" y="519">?</tspan>
                </text>
                <g id="Example-Box" transform="translate(200.000000, 400.000000)" stroke="#0880CB" stroke-width="3">
                    <rect id="Rectangle" x="1.5" y="1.5" width="157" height="157"></rect>
                </g>
                <polygon id="Triangle" stroke="#0880CB" stroke-width="5" fill="#FFFFFF" points="280 460 300 500 260 500"></polygon>
                <g id="Example-Box" transform="translate(0.000000, 400.000000)" stroke="#0880CB" stroke-width="3">
                    <rect id="Rectangle" x="1.5" y="1.5" width="157" height="157"></rect>
                </g>
                <g id="Example-Box" transform="translate(400.000000, 200.000000)" stroke="#0880CB" stroke-width="3">
                    <rect id="Rectangle" x="1.5" y="1.5" width="157" height="157"></rect>
                </g>
                <g id="Group-2" transform="translate(430.000000, 230.000000)" fill="#FFFFFF" stroke="#0880CB" stroke-width="5">
                    <rect id="Rectangle" x="0" y="0" width="40" height="40"></rect>
                    <rect id="Rectangle-Copy-2" x="60" y="0" width="40" height="40"></rect>
                    <rect id="Rectangle-Copy" x="30" y="60" width="40" height="40"></rect>
                </g>
                <g id="Example-Box" transform="translate(200.000000, 200.000000)" stroke="#0880CB" stroke-width="3">
                    <rect id="Rectangle" x="1.5" y="1.5" width="157" height="157"></rect>
                </g>
                <g id="Example-Box" transform="translate(0.000000, 200.000000)" stroke="#0880CB" stroke-width="3">
                    <rect id="Rectangle" x="1.5" y="1.5" width="157" height="157"></rect>
                </g>
                <rect id="Rectangle" stroke="#0880CB" stroke-width="5" fill="#FFFFFF" x="60" y="260" width="40" height="40"></rect>
                <g id="Example-Box" transform="translate(400.000000, 0.000000)" stroke="#0880CB" stroke-width="3">
                    <rect id="Rectangle" x="1.5" y="1.5" width="157" height="157"></rect>
                </g>
                <g id="Group-2" transform="translate(260.000000, 230.000000)" fill="#FFFFFF" stroke="#0880CB" stroke-width="5">
                    <rect id="Rectangle" x="0" y="0" width="40" height="40"></rect>
                    <rect id="Rectangle-Copy" x="0" y="60" width="40" height="40"></rect>
                </g>
                <g id="Group" transform="translate(430.000000, 30.000000)" fill="#FFFFFF" stroke="#0880CB" stroke-width="5">
                    <circle id="Oval" cx="80" cy="20" r="20"></circle>
                    <circle id="Oval-Copy-4" cx="20" cy="20" r="20"></circle>
                    <circle id="Oval" cx="20" cy="80" r="20"></circle>
                    <circle id="Oval-Copy" cx="80" cy="80" r="20"></circle>
                </g>
                <g id="Example-Box" transform="translate(200.000000, 0.000000)" stroke="#0880CB" stroke-width="3">
                    <rect id="Rectangle" x="1.5" y="1.5" width="157" height="157"></rect>
                </g>
                <g id="Group" transform="translate(230.000000, 30.000000)" fill="#FFFFFF" stroke="#0880CB" stroke-width="5">
                    <circle id="Oval" cx="80" cy="20" r="20"></circle>
                    <circle id="Oval-Copy-4" cx="20" cy="20" r="20"></circle>
                    <circle id="Oval" cx="50" cy="80" r="20"></circle>
                </g>
                <g id="Example-Box" stroke="#0880CB" stroke-width="3">
                    <rect id="Rectangle" x="1.5" y="1.5" width="157" height="157"></rect>
                </g>
                <g id="Group-17" transform="translate(60.000000, 30.000000)" fill="#FFFFFF" stroke="#0880CB" stroke-width="5">
                    <circle id="Oval" cx="20" cy="20" r="20"></circle>
                    <circle id="Oval-Copy-4" cx="20" cy="80" r="20"></circle>
                </g>
            </g>
        </g>
    </g>
</svg>
