
<svg width="560px" height="560px" viewBox="0 0 560 560" version="1.1" xmlns="http://www.w3.org/2000/svg" xmlns:xlink="http://www.w3.org/1999/xlink">
    <g id="Questions" stroke="none" stroke-width="1" fill="none" fill-rule="evenodd">
        <g id="Desktop-HD-Question-19" transform="translate(-180.000000, -264.000000)">
            <g id="Console" transform="translate(180.000000, 264.000000)">
                <g id="Example-Box" transform="translate(400.000000, 400.000000)" stroke="#0880CB" stroke-width="3">
                    <rect id="Rectangle" x="1.5" y="1.5" width="157" height="157"></rect>
                </g>
                <text id="Question" font-family="Roboto-Regular, Roboto" font-size="100" font-weight="normal" fill="#0880CB">
                    <tspan x="456" y="519">?</tspan>
                </text>
                <g id="Example-Box" transform="translate(200.000000, 400.000000)" stroke="#0880CB" stroke-width="3">
                    <rect id="Rectangle" x="1.5" y="1.5" width="157" height="157"></rect>
                </g>
                <g id="Group-36-Copy-7" transform="translate(279.710678, 479.710678) scale(1, -1) rotate(45.000000) translate(-279.710678, -479.710678) translate(229.710678, 429.710678)">
                    <circle id="Oval" stroke="#0880CB" stroke-width="5" fill="#FFFFFF" cx="50" cy="50" r="50"></circle>
                    <path d="M0,0 C27.6142375,0 50,22.3857625 50,50 C50,77.6142375 27.6142375,100 0,100 L0,0 Z" id="Combined-Shape" fill="#0880CB" transform="translate(25.000000, 50.000000) rotate(180.000000) translate(-25.000000, -50.000000) "></path>
                </g>
                <g id="Example-Box" transform="translate(0.000000, 400.000000)" stroke="#0880CB" stroke-width="3">
                    <rect id="Rectangle" x="1.5" y="1.5" width="157" height="157"></rect>
                </g>
                <g id="Group-36-Copy-6" transform="translate(80.000000, 480.000000) scale(1, -1) rotate(90.000000) translate(-80.000000, -480.000000) translate(30.000000, 430.000000)">
                    <circle id="Oval" stroke="#0880CB" stroke-width="5" fill="#FFFFFF" cx="50" cy="50" r="50"></circle>
                    <path d="M0,0 C27.6142375,0 50,22.3857625 50,50 C50,77.6142375 27.6142375,100 0,100 L0,0 Z" id="Combined-Shape" fill="#0880CB" transform="translate(25.000000, 50.000000) rotate(180.000000) translate(-25.000000, -50.000000) "></path>
                </g>
                <g id="Example-Box" transform="translate(400.000000, 200.000000)" stroke="#0880CB" stroke-width="3">
                    <rect id="Rectangle" x="1.5" y="1.5" width="157" height="157"></rect>
                </g>
                <g id="Group-36-Copy-5" transform="translate(479.710678, 279.710678) scale(-1, -1) rotate(45.000000) translate(-479.710678, -279.710678) translate(429.710678, 229.710678)">
                    <circle id="Oval" stroke="#0880CB" stroke-width="5" fill="#FFFFFF" cx="50" cy="50" r="50"></circle>
                    <path d="M0,0 C27.6142375,0 50,22.3857625 50,50 C50,77.6142375 27.6142375,100 0,100 L0,0 Z" id="Combined-Shape" fill="#0880CB" transform="translate(25.000000, 50.000000) rotate(180.000000) translate(-25.000000, -50.000000) "></path>
                </g>
                <g id="Example-Box" transform="translate(200.000000, 200.000000)" stroke="#0880CB" stroke-width="3">
                    <rect id="Rectangle" x="1.5" y="1.5" width="157" height="157"></rect>
                </g>
                <g id="Group-36-Copy-4" transform="translate(280.000000, 280.000000) scale(-1, 1) translate(-280.000000, -280.000000) translate(230.000000, 230.000000)">
                    <circle id="Oval" stroke="#0880CB" stroke-width="5" fill="#FFFFFF" cx="50" cy="50" r="50"></circle>
                    <path d="M0,0 C27.6142375,0 50,22.3857625 50,50 C50,77.6142375 27.6142375,100 0,100 L0,0 Z" id="Combined-Shape" fill="#0880CB" transform="translate(25.000000, 50.000000) rotate(180.000000) translate(-25.000000, -50.000000) "></path>
                </g>
                <g id="Example-Box" transform="translate(0.000000, 200.000000)" stroke="#0880CB" stroke-width="3">
                    <rect id="Rectangle" x="1.5" y="1.5" width="157" height="157"></rect>
                </g>
                <g id="Group-36-Copy-3" transform="translate(79.710678, 279.710678) scale(-1, 1) rotate(45.000000) translate(-79.710678, -279.710678) translate(29.710678, 229.710678)">
                    <circle id="Oval" stroke="#0880CB" stroke-width="5" fill="#FFFFFF" cx="50" cy="50" r="50"></circle>
                    <path d="M0,0 C27.6142375,0 50,22.3857625 50,50 C50,77.6142375 27.6142375,100 0,100 L0,0 Z" id="Combined-Shape" fill="#0880CB" transform="translate(25.000000, 50.000000) rotate(180.000000) translate(-25.000000, -50.000000) "></path>
                </g>
                <g id="Example-Box" transform="translate(400.000000, 0.000000)" stroke="#0880CB" stroke-width="3">
                    <rect id="Rectangle" x="1.5" y="1.5" width="157" height="157"></rect>
                </g>
                <g id="Group-36-Copy-2" transform="translate(480.000000, 80.000000) rotate(90.000000) translate(-480.000000, -80.000000) translate(430.000000, 30.000000)">
                    <circle id="Oval" stroke="#0880CB" stroke-width="5" fill="#FFFFFF" cx="50" cy="50" r="50"></circle>
                    <path d="M0,0 C27.6142375,0 50,22.3857625 50,50 C50,77.6142375 27.6142375,100 0,100 L0,0 Z" id="Combined-Shape" fill="#0880CB" transform="translate(25.000000, 50.000000) rotate(180.000000) translate(-25.000000, -50.000000) "></path>
                </g>
                <g id="Example-Box" transform="translate(200.000000, 0.000000)" stroke="#0880CB" stroke-width="3">
                    <rect id="Rectangle" x="1.5" y="1.5" width="157" height="157"></rect>
                </g>
                <g id="Group-36-Copy" transform="translate(279.710678, 79.710678) rotate(45.000000) translate(-279.710678, -79.710678) translate(229.710678, 29.710678)">
                    <circle id="Oval" stroke="#0880CB" stroke-width="5" fill="#FFFFFF" cx="50" cy="50" r="50"></circle>
                    <path d="M0,0 C27.6142375,0 50,22.3857625 50,50 C50,77.6142375 27.6142375,100 0,100 L0,0 Z" id="Combined-Shape" fill="#0880CB" transform="translate(25.000000, 50.000000) rotate(180.000000) translate(-25.000000, -50.000000) "></path>
                </g>
                <g id="Example-Box" stroke="#0880CB" stroke-width="3">
                    <rect id="Rectangle" x="1.5" y="1.5" width="157" height="157"></rect>
                </g>
                <g id="Group-36" transform="translate(30.000000, 30.000000)">
                    <circle id="Oval" stroke="#0880CB" stroke-width="5" fill="#FFFFFF" cx="50" cy="50" r="50"></circle>
                    <path d="M0,0 C27.6142375,0 50,22.3857625 50,50 C50,77.6142375 27.6142375,100 0,100 L0,0 Z" id="Combined-Shape" fill="#0880CB" transform="translate(25.000000, 50.000000) rotate(180.000000) translate(-25.000000, -50.000000) "></path>
                </g>
            </g>
        </g>
    </g>
</svg>
