<svg xmlns:rdf="http://www.w3.org/1999/02/22-rdf-syntax-ns#" xmlns="http://www.w3.org/2000/svg" version="1.1" xmlns:cc="http://creativecommons.org/ns#" xmlns:xlink="http://www.w3.org/1999/xlink" viewBox="0 0 46.761 46.761" xmlns:dc="http://purl.org/dc/elements/1.1/">
 <g transform="translate(-307.35 -1270.5)">
  <g fill-rule="evenodd" fill="#2e2e2e">
   <path style="color:#000000" d="m325.02 1284.7a3.54 3.54 0 0 1 -7.0799 0 3.54 3.54 0 1 1 7.0799 0z"/>
   <path style="color:#000000" d="m315.78 1303.2a3.54 3.54 0 0 1 -7.0799 0 3.54 3.54 0 1 1 7.0799 0z"/>
   <path style="color:#000000" d="m315.78 1312.4a3.54 3.54 0 0 1 -7.0799 0 3.54 3.54 0 1 1 7.0799 0z"/>
   <path style="color:#000000" d="m334.27 1293.9a3.54 3.54 0 0 1 -7.0799 0 3.54 3.54 0 1 1 7.0799 0z"/>
  </g>
  <g stroke-linejoin="round" transform="translate(291.58 2276.5)" stroke="#2e2e2e" stroke-linecap="round" stroke-width=".5" fill="none">
   <rect style="color:#000000" rx="0" ry="0" height="9.2881" width="9.2881" y="-968.72" x="52.992"/>
   <rect height="9.2881" style="color:#000000" rx="0" ry="0" width="9.2881" y="-968.72" x="34.506"/>
   <rect style="color:#000000" rx="0" ry="0" height="9.2881" width="9.2881" y="-968.72" x="25.263"/>
   <rect height="9.2881" style="color:#000000" rx="0" ry="0" width="9.2881" y="-996.45" x="25.263"/>
   <rect style="color:#000000" rx="0" ry="0" height="9.2881" width="9.2881" y="-996.45" x="43.749"/>
   <rect height="9.2881" style="color:#000000" rx="0" ry="0" width="9.2881" y="-968.72" x="43.749"/>
   <rect style="color:#000000" rx="0" ry="0" height="9.2881" width="9.2881" y="-987.2" x="52.992"/>
   <rect height="9.2881" style="color:#000000" rx="0" ry="0" width="9.2881" y="-977.96" x="16.02"/>
   <rect style="color:#000000" rx="0" ry="0" height="9.2881" width="9.2881" y="-977.96" x="25.263"/>
   <rect height="9.2881" style="color:#000000" rx="0" ry="0" width="9.2881" y="-1005.7" x="43.749"/>
   <rect style="color:#000000" rx="0" ry="0" height="9.2881" width="9.2881" y="-968.72" x="16.02"/>
   <rect height="9.2881" style="color:#000000" rx="0" ry="0" width="9.2881" y="-977.96" x="43.749"/>
   <rect style="color:#000000" rx="0" ry="0" height="9.2881" width="9.2881" y="-996.45" x="34.506"/>
   <rect height="9.2881" style="color:#000000" rx="0" ry="0" width="9.2881" y="-977.96" x="52.992"/>
   <rect style="color:#000000" rx="0" ry="0" height="9.2881" width="9.2881" y="-977.96" x="34.506"/>
   <rect height="9.2881" style="color:#000000" rx="0" ry="0" width="9.2881" y="-987.2" x="25.263"/>
   <rect style="color:#000000" rx="0" ry="0" height="9.2881" width="9.2881" y="-996.45" x="52.992"/>
   <rect height="9.2881" style="color:#000000" rx="0" ry="0" width="9.2881" y="-987.2" x="16.02"/>
   <rect style="color:#000000" rx="0" ry="0" height="9.2881" width="9.2881" y="-1005.7" x="34.506"/>
   <rect height="9.2881" style="color:#000000" rx="0" ry="0" width="9.2881" y="-1005.7" x="25.263"/>
   <rect style="color:#000000" rx="0" ry="0" height="9.2881" width="9.2881" y="-996.45" x="16.02"/>
   <rect height="9.2881" style="color:#000000" rx="0" ry="0" width="9.2881" y="-1005.7" x="52.992"/>
   <rect style="color:#000000" rx="0" ry="0" height="9.2881" width="9.2881" y="-987.2" x="43.749"/>
   <rect height="9.2881" style="color:#000000" rx="0" ry="0" width="9.2881" y="-987.2" x="34.506"/>
   <rect style="color:#000000" rx="0" ry="0" height="9.2881" width="9.2881" y="-1005.7" x="16.02"/>
  </g>
  <path style="color:#000000" d="m315.78 1275.4a3.54 3.54 0 0 1 -7.0799 0 3.54 3.54 0 1 1 7.0799 0z" fill-rule="evenodd" fill="#2e2e2e"/>
 </g>
</svg>
