
<svg width="260px" height="260px" viewBox="0 0 260 260" version="1.1" xmlns="http://www.w3.org/2000/svg" xmlns:xlink="http://www.w3.org/1999/xlink">
    <defs>
        <polygon id="path-1" points="0 0 260 0 260 260 184.53776 260 0 260 0 217.629187"></polygon>
        <filter x="-2.3%" y="-1.5%" width="104.6%" height="103.1%" filterUnits="objectBoundingBox" id="filter-2">
            <feOffset dx="2" dy="0" in="SourceAlpha" result="shadowOffsetOuter1"></feOffset>
            <feGaussianBlur stdDeviation="1" in="shadowOffsetOuter1" result="shadowBlurOuter1"></feGaussianBlur>
            <feComposite in="shadowBlurOuter1" in2="SourceAlpha" operator="out" result="shadowBlurOuter1"></feComposite>
            <feColorMatrix values="0 0 0 0 0.031372549   0 0 0 0 0.501960784   0 0 0 0 0.796078431  0 0 0 0.2 0" type="matrix" in="shadowBlurOuter1" result="shadowMatrixOuter1"></feColorMatrix>
            <feOffset dx="-2" dy="0" in="SourceAlpha" result="shadowOffsetOuter2"></feOffset>
            <feGaussianBlur stdDeviation="1" in="shadowOffsetOuter2" result="shadowBlurOuter2"></feGaussianBlur>
            <feComposite in="shadowBlurOuter2" in2="SourceAlpha" operator="out" result="shadowBlurOuter2"></feComposite>
            <feColorMatrix values="0 0 0 0 0.031372549   0 0 0 0 0.501960784   0 0 0 0 0.796078431  0 0 0 0.2 0" type="matrix" in="shadowBlurOuter2" result="shadowMatrixOuter2"></feColorMatrix>
            <feMerge>
                <feMergeNode in="shadowMatrixOuter1"></feMergeNode>
                <feMergeNode in="shadowMatrixOuter2"></feMergeNode>
            </feMerge>
        </filter>
    </defs>
    <g id="Questions" stroke="none" stroke-width="1" fill="none" fill-rule="evenodd">
        <g id="Desktop-HD-Question-17" transform="translate(-913.000000, -410.000000)">
            <g id="Options" transform="translate(920.000000, 154.000000)">
                <g id="Option-3" transform="translate(0.000000, 259.000000)">
                    <g id="Option-Box-Container">
                        <g id="Backgound-Box">
                            <use fill="black" fill-opacity="1" filter="url(#filter-2)" xlink:href="#path-1"></use>
                            <use fill-opacity="0.5" fill="#F9F9F9" fill-rule="evenodd" xlink:href="#path-1"></use>
                        </g>
                        <path d="M0,0 L40,0 L40,41 C40,45.9705627 35.9705627,50 31,50 L0,50 L0,0 Z" id="Background-Box-Number" fill="#DBF1FF" fill-rule="evenodd"></path>
                        <text id="Option-Number" font-family="Roboto-Regular, Roboto" font-size="25" font-weight="normal" fill="#0880CB">
                            <tspan x="12.3640137" y="33">C</tspan>
                        </text>
                    </g>
                    <g id="Group-32-Copy-3" transform="translate(79.000000, 79.000000)" stroke="#0880CB">
                        <rect id="Rectangle" stroke-width="5" fill="#FFFFFF" x="0.5" y="2" width="100" height="100"></rect>
                        <path d="M101.5,1.5 L0.5,100" id="Path-28" stroke-width="2"></path>
                        <g id="Group-34" transform="translate(9.000000, 0.000000)" stroke-width="2">
                            <path d="M0,3 L91.6789551,94.6789551" id="Path-30"></path>
                            <path d="M5,0 L92,87" id="Path-30-Copy-8"></path>
                            <path d="M13,1 L92,80" id="Path-30-Copy-9"></path>
                            <path d="M21,2 L91.2329102,72.2329102" id="Path-30-Copy-10"></path>
                            <path d="M27,2 L92,67" id="Path-30-Copy-11"></path>
                            <path d="M33,2 L92,61" id="Path-30-Copy-12"></path>
                            <path d="M39,2 L90.8623047,53.8623047" id="Path-30-Copy-13"></path>
                            <path d="M45,2 L91,48" id="Path-30-Copy-14"></path>
                            <path d="M51,2 L91,42" id="Path-30-Copy-15"></path>
                            <path d="M56,2 L91,37" id="Path-30-Copy-16"></path>
                            <path d="M61.5,2 L91,31.5" id="Path-30-Copy-17"></path>
                            <path d="M67,2 L91,26" id="Path-30-Copy-18"></path>
                            <path d="M72,2 L92,22" id="Path-30-Copy-19"></path>
                            <path d="M77,2 L92,17" id="Path-30-Copy-20"></path>
                        </g>
                        <path d="M100.5,102 L0.5,2" id="Path-29" stroke-width="2"></path>
                    </g>
                </g>
            </g>
        </g>
    </g>
</svg>
