<?xml version="1.0" encoding="UTF-8" standalone="no"?>
<!DOCTYPE svg PUBLIC "-//W3C//DTD SVG 1.1//EN" "http://www.w3.org/Graphics/SVG/1.1/DTD/svg11.dtd">
<svg version="1.1" xmlns="http://www.w3.org/2000/svg" xmlns:xlink="http://www.w3.org/1999/xlink" preserveAspectRatio="xMidYMid meet" viewBox="0 0 640 640" width="640" height="640"><defs><path d="M101.93 64L20 9.05L114.97 0L200 41.75L101.93 64ZM109.98 18.08L110.08 18.13L110.18 18.18L110.29 18.22L110.39 18.27L110.5 18.32L110.61 18.38L110.72 18.43L110.83 18.48L110.94 18.53L111.06 18.59L111.17 18.65L111.29 18.7L111.41 18.76L111.54 18.82L111.66 18.88L111.79 18.94L111.92 19L112.05 19.06L112.18 19.12L112.31 19.19L112.45 19.25L112.58 19.32L112.72 19.38L112.86 19.45L113.01 19.52L113.15 19.59L113.3 19.66L113.44 19.73L113.59 19.8L113.74 19.87L113.89 19.95L114.04 20.02L114.19 20.09L114.34 20.16L114.49 20.24L114.64 20.31L114.79 20.38L114.94 20.46L115.08 20.53L115.23 20.6L115.38 20.67L115.52 20.75L115.67 20.82L115.82 20.89L115.96 20.97L116.11 21.04L116.25 21.11L116.4 21.19L116.54 21.26L116.68 21.33L116.83 21.41L116.97 21.48L117.11 21.55L117.26 21.63L117.4 21.7L117.54 21.77L117.68 21.85L117.83 21.92L117.97 22L121.99 24.1L88.07 29.73L87.92 29.75L87.76 29.78L87.61 29.8L87.46 29.83L87.31 29.85L87.16 29.87L87.01 29.9L86.86 29.92L86.72 29.94L86.57 29.96L86.42 29.99L86.28 30.01L86.13 30.03L85.99 30.05L85.84 30.07L85.7 30.09L85.56 30.11L85.41 30.13L85.27 30.15L85.13 30.17L84.99 30.18L84.85 30.2L84.71 30.22L84.58 30.24L84.44 30.25L84.3 30.27L84.17 30.28L84.03 30.3L83.89 30.32L83.76 30.33L83.63 30.34L83.5 30.36L83.37 30.37L83.24 30.38L83.11 30.4L82.99 30.41L82.86 30.42L82.74 30.43L82.62 30.44L82.5 30.45L82.39 30.46L82.27 30.46L82.16 30.47L82.05 30.48L81.94 30.49L81.83 30.49L81.72 30.5L81.61 30.5L81.51 30.51L81.41 30.51L81.31 30.51L81.21 30.52L81.11 30.52L81.01 30.52L80.92 30.53L80.82 30.53L80.73 30.53L80.64 30.53L80.56 30.53L80.47 30.53L92.82 37.61L92.93 37.56L93.06 37.51L93.18 37.46L93.32 37.41L93.46 37.36L93.61 37.31L93.77 37.26L93.93 37.21L94.1 37.16L94.27 37.11L94.45 37.06L94.64 37.01L94.84 36.96L95.04 36.91L95.25 36.86L95.46 36.81L95.68 36.76L95.91 36.7L96.15 36.65L96.39 36.6L96.64 36.55L96.89 36.5L97.15 36.45L97.42 36.4L97.7 36.35L97.98 36.3L98.27 36.25L98.56 36.19L98.87 36.14L99.18 36.09L132.67 30.53L132.81 30.51L132.94 30.49L133.07 30.46L133.2 30.44L133.33 30.42L133.46 30.4L133.59 30.38L133.72 30.36L133.85 30.34L133.98 30.32L134.12 30.3L134.25 30.28L134.38 30.26L134.51 30.24L134.64 30.22L134.78 30.2L134.91 30.18L135.04 30.16L135.17 30.14L135.31 30.12L135.44 30.1L135.57 30.08L135.71 30.07L135.84 30.05L135.97 30.03L136.11 30.01L136.24 29.99L136.37 29.97L136.51 29.96L136.64 29.94L136.78 29.92L136.91 29.9L137.04 29.89L137.17 29.87L137.3 29.85L137.43 29.84L137.56 29.82L137.68 29.81L137.81 29.79L137.93 29.78L138.06 29.76L138.18 29.75L138.3 29.73L138.42 29.72L138.55 29.71L138.66 29.69L138.78 29.68L138.9 29.67L139.02 29.66L139.13 29.65L139.25 29.63L139.36 29.62L139.47 29.61L139.58 29.6L139.7 29.59L139.8 29.58L139.91 29.57L140.02 29.56L140.13 29.55L140.23 29.55L114.32 16.45L109.88 18.03L109.98 18.08Z" id="c1hl6eZtj"></path><path d="M80.46 180L0 112.71L17.66 8L100 62.16L80.46 180ZM45.58 65.71L45.83 65.74L46.08 65.78L46.33 65.82L46.58 65.87L46.83 65.92L47.07 65.97L47.32 66.03L47.57 66.09L47.81 66.15L48.06 66.22L48.3 66.29L48.54 66.37L48.79 66.45L49.03 66.54L49.27 66.62L49.51 66.72L49.75 66.81L49.99 66.91L50.22 67.01L50.46 67.12L50.7 67.23L50.94 67.35L51.17 67.47L51.41 67.59L51.64 67.72L51.87 67.85L52.11 67.99L52.34 68.12L52.57 68.27L52.8 68.41L53.03 68.56L53.26 68.72L53.49 68.88L53.72 69.04L53.94 69.21L54.17 69.38L54.4 69.55L54.62 69.73L54.85 69.91L55.02 70.06L55.2 70.21L55.37 70.36L55.54 70.51L55.71 70.66L55.87 70.81L56.03 70.97L56.19 71.12L56.35 71.28L56.5 71.44L56.65 71.6L56.8 71.76L56.95 71.92L57.09 72.09L57.23 72.25L57.37 72.42L57.51 72.58L57.64 72.75L57.77 72.92L57.9 73.09L58.02 73.27L58.15 73.44L58.27 73.61L58.38 73.79L58.5 73.97L58.61 74.15L58.72 74.33L58.83 74.51L58.93 74.69L59.03 74.87L59.13 75.06L59.23 75.25L59.32 75.43L59.42 75.62L59.5 75.81L59.59 76L59.67 76.2L59.76 76.39L59.83 76.58L59.91 76.78L59.98 76.98L60.05 77.18L60.12 77.37L60.18 77.57L60.25 77.77L60.3 77.97L60.36 78.17L60.41 78.37L60.46 78.56L60.51 78.76L60.55 78.96L60.59 79.16L60.63 79.36L60.67 79.56L60.7 79.76L60.73 79.97L60.76 80.17L60.78 80.37L60.8 80.57L60.82 80.77L60.83 80.97L60.85 81.18L60.86 81.38L60.86 81.58L60.87 81.79L60.87 81.99L60.86 82.19L60.86 82.4L60.85 82.6L60.84 82.81L60.83 83.01L60.81 83.22L60.79 83.42L60.77 83.63L60.74 83.83L60.72 84.04L60.68 84.24L60.65 84.45L60.61 84.66L60.57 84.87L60.56 84.96L60.54 85.06L60.52 85.15L60.49 85.25L60.47 85.34L60.45 85.43L60.43 85.53L60.41 85.62L60.38 85.71L60.36 85.8L60.34 85.9L60.31 85.99L60.29 86.08L60.26 86.17L60.23 86.26L60.21 86.35L60.18 86.44L60.15 86.53L60.12 86.61L60.1 86.7L60.07 86.79L60.04 86.88L60.01 86.96L59.98 87.05L59.95 87.14L59.91 87.22L59.88 87.31L59.85 87.39L59.82 87.48L59.78 87.56L59.75 87.65L59.71 87.73L59.68 87.81L59.64 87.89L59.61 87.98L59.57 88.06L59.54 88.14L59.5 88.22L59.46 88.3L59.42 88.38L59.38 88.46L59.34 88.54L59.3 88.62L59.26 88.7L59.22 88.78L59.18 88.86L59.14 88.94L59.09 89.01L59.05 89.09L59 89.17L58.96 89.25L58.91 89.33L58.86 89.4L58.82 89.48L58.77 89.56L58.72 89.63L58.67 89.71L58.62 89.79L58.57 89.86L58.52 89.94L58.47 90.01L58.41 90.09L58.36 90.16L58.3 90.24L58.25 90.31L58.19 90.39L58.14 90.46L58.08 90.54L58.02 90.61L57.97 90.68L57.91 90.76L57.85 90.83L57.79 90.9L57.73 90.98L57.66 91.05L57.6 91.12L57.54 91.19L57.48 91.26L57.41 91.34L57.35 91.41L57.28 91.48L57.21 91.55L57.15 91.62L57.08 91.69L57.01 91.76L56.94 91.83L56.87 91.9L56.8 91.97L56.73 92.04L56.66 92.11L56.59 92.18L56.51 92.25L56.44 92.32L56.36 92.39L56.29 92.45L56.21 92.52L56.14 92.59L56.06 92.66L55.98 92.72L55.9 92.79L55.82 92.86L55.74 92.92L55.66 92.99L55.58 93.05L55.5 93.12L55.41 93.19L55.33 93.25L55.24 93.32L55.16 93.38L55.07 93.44L54.99 93.51L54.9 93.57L54.81 93.63L54.72 93.7L54.63 93.76L54.54 93.82L54.45 93.89L54.36 93.95L54.27 94.01L54.17 94.07L54.08 94.13L53.98 94.2L53.89 94.26L53.79 94.32L53.69 94.38L53.6 94.44L53.5 94.5L53.4 94.56L53.29 94.62L53.19 94.69L53.09 94.75L52.99 94.81L52.88 94.87L52.78 94.93L52.67 94.99L52.56 95.05L52.45 95.11L52.35 95.17L52.24 95.23L52.12 95.3L52.01 95.36L51.9 95.42L51.79 95.48L51.67 95.54L51.56 95.6L51.44 95.66L51.32 95.72L51.21 95.78L51.09 95.84L50.97 95.9L50.85 95.96L50.73 96.02L50.6 96.08L50.48 96.14L50.36 96.2L50.23 96.26L50.11 96.32L49.98 96.38L49.85 96.44L49.72 96.49L49.53 96.59L49.33 96.68L49.14 96.77L48.94 96.86L48.75 96.95L48.55 97.04L48.36 97.13L48.16 97.22L47.97 97.3L47.77 97.39L47.58 97.47L47.39 97.56L47.19 97.64L47 97.72L46.81 97.8L46.62 97.88L46.43 97.96L46.23 98.04L46.04 98.12L45.85 98.2L45.66 98.27L45.47 98.35L45.28 98.42L45.09 98.5L44.9 98.57L44.71 98.64L44.52 98.71L44.33 98.78L44.14 98.85L43.96 98.92L43.77 98.99L43.58 99.06L43.39 99.12L43.21 99.19L43.02 99.25L42.83 99.32L42.64 99.38L42.46 99.44L42.27 99.5L42.09 99.56L41.9 99.62L41.72 99.68L41.53 99.74L41.35 99.79L41.17 99.85L40.98 99.9L40.8 99.95L40.62 100.01L40.44 100.06L40.26 100.11L40.09 100.16L39.91 100.2L39.73 100.25L39.55 100.29L39.38 100.34L39.2 100.38L39.03 100.42L38.85 100.47L38.68 100.51L38.51 100.55L38.34 100.58L38.17 100.62L38 100.66L37.83 100.69L37.66 100.73L37.49 100.76L37.32 100.79L37.15 100.82L36.99 100.85L36.82 100.88L36.66 100.91L36.49 100.93L36.33 100.96L36.17 100.98L36.01 101L35.84 101.03L35.68 101.05L35.52 101.07L35.36 101.09L35.21 101.1L34.12 106.55L60.93 128.51L62.27 121.76L62.21 121.72L62.15 121.68L62.09 121.64L62.03 121.6L61.97 121.56L61.91 121.52L61.86 121.48L61.8 121.44L61.74 121.4L61.68 121.36L61.62 121.32L61.56 121.28L61.51 121.24L61.45 121.2L61.39 121.16L61.33 121.12L61.27 121.08L61.21 121.04L61.16 121L61.1 120.96L61.04 120.92L60.98 120.88L60.92 120.84L60.87 120.8L60.81 120.75L60.75 120.71L60.69 120.67L60.63 120.63L60.58 120.59L60.52 120.55L60.46 120.5L60.4 120.46L60.34 120.42L60.29 120.38L60.23 120.34L60.17 120.29L60.11 120.25L60.05 120.21L60 120.17L59.94 120.12L59.88 120.08L59.82 120.04L59.76 119.99L59.71 119.95L59.65 119.9L59.59 119.86L59.53 119.81L59.47 119.77L59.41 119.72L59.35 119.67L59.28 119.63L59.22 119.58L59.16 119.53L59.1 119.48L59.04 119.44L58.97 119.39L58.91 119.34L58.85 119.29L58.78 119.24L58.72 119.19L58.65 119.14L58.59 119.08L58.52 119.03L58.46 118.98L58.39 118.93L58.32 118.88L58.26 118.82L58.19 118.77L58.12 118.71L58.05 118.66L57.99 118.6L57.92 118.55L57.85 118.49L57.78 118.44L57.71 118.38L57.64 118.32L57.57 118.27L57.5 118.21L57.43 118.15L57.36 118.09L44.29 107.39L44.36 107.37L44.44 107.35L44.52 107.33L44.59 107.31L44.67 107.29L44.74 107.27L44.82 107.25L44.9 107.23L44.98 107.21L45.05 107.19L45.13 107.17L45.21 107.15L45.29 107.13L45.37 107.11L45.44 107.09L45.52 107.07L45.6 107.05L45.68 107.03L45.76 107.01L45.84 106.99L45.92 106.96L46 106.94L46.08 106.92L46.16 106.9L46.24 106.88L46.32 106.85L46.4 106.83L46.49 106.81L46.57 106.78L46.65 106.76L46.73 106.74L46.81 106.71L46.9 106.69L46.98 106.67L47.06 106.64L47.15 106.62L47.23 106.6L47.31 106.57L47.4 106.55L47.48 106.52L47.57 106.5L47.65 106.47L47.73 106.45L47.82 106.42L47.9 106.4L47.99 106.37L48.07 106.35L48.15 106.32L48.24 106.3L48.32 106.27L48.4 106.25L48.49 106.22L48.57 106.19L48.66 106.17L48.74 106.14L48.82 106.11L48.9 106.09L48.99 106.06L49.07 106.03L49.15 106.01L49.24 105.98L49.32 105.95L49.4 105.93L49.48 105.9L49.57 105.87L49.65 105.84L49.73 105.82L49.81 105.79L49.9 105.76L49.98 105.73L50.06 105.7L50.14 105.68L50.22 105.65L50.31 105.62L50.39 105.59L50.47 105.56L50.55 105.53L50.63 105.51L50.72 105.48L50.8 105.45L50.88 105.42L50.96 105.39L51.04 105.36L51.12 105.33L51.2 105.3L51.28 105.27L51.36 105.24L51.44 105.21L51.53 105.18L51.61 105.15L51.69 105.12L51.77 105.09L51.85 105.06L51.93 105.03L52.01 105L52.09 104.97L52.17 104.94L52.25 104.91L52.33 104.88L52.41 104.85L52.49 104.82L52.57 104.79L52.65 104.76L52.73 104.73L52.8 104.7L52.88 104.67L52.96 104.64L53.04 104.61L53.12 104.57L53.2 104.54L53.28 104.51L53.36 104.48L53.44 104.45L53.52 104.42L53.59 104.39L53.67 104.35L53.75 104.32L53.83 104.29L53.91 104.26L53.99 104.23L54.06 104.2L54.14 104.16L54.22 104.13L54.29 104.1L54.37 104.07L54.45 104.03L54.52 104L54.6 103.97L54.67 103.94L54.75 103.91L54.82 103.87L54.9 103.84L54.97 103.81L55.04 103.78L55.12 103.74L55.19 103.71L55.26 103.68L55.33 103.65L55.4 103.61L55.47 103.58L55.55 103.55L55.62 103.52L55.69 103.48L55.75 103.45L55.82 103.42L55.89 103.39L55.96 103.35L56.03 103.32L56.1 103.29L56.16 103.25L56.23 103.22L56.3 103.19L56.36 103.16L56.43 103.12L56.49 103.09L56.56 103.06L56.62 103.03L56.69 102.99L56.75 102.96L56.81 102.93L56.96 102.85L57.11 102.77L57.26 102.69L57.4 102.61L57.55 102.53L57.69 102.45L57.83 102.37L57.98 102.29L58.12 102.21L58.26 102.12L58.4 102.04L58.54 101.96L58.68 101.88L58.82 101.8L58.95 101.72L59.09 101.64L59.23 101.55L59.36 101.47L59.5 101.39L59.63 101.31L59.76 101.23L59.9 101.14L60.03 101.06L60.16 100.98L60.29 100.89L60.42 100.81L60.55 100.73L60.67 100.64L60.8 100.56L60.93 100.48L61.05 100.39L61.18 100.31L61.3 100.22L61.43 100.14L61.55 100.06L61.67 99.97L61.79 99.89L61.91 99.8L62.03 99.72L62.15 99.63L62.29 99.53L62.42 99.42L62.55 99.32L62.68 99.21L62.8 99.11L62.93 99L63.05 98.9L63.18 98.79L63.3 98.68L63.42 98.58L63.53 98.47L63.65 98.37L63.76 98.26L63.88 98.15L63.99 98.05L64.1 97.94L64.2 97.83L64.31 97.73L64.42 97.62L64.52 97.51L64.62 97.4L64.72 97.29L64.82 97.19L64.92 97.08L65.01 96.97L65.11 96.86L65.2 96.75L65.29 96.64L65.38 96.53L65.47 96.42L65.55 96.31L65.64 96.2L65.72 96.09L65.8 95.98L65.88 95.87L65.96 95.76L66.04 95.65L66.11 95.54L66.19 95.43L66.26 95.32L66.33 95.21L66.4 95.1L66.47 94.98L66.53 94.87L66.6 94.75L66.67 94.63L66.73 94.51L66.8 94.39L66.86 94.27L66.92 94.15L66.98 94.02L67.04 93.9L67.1 93.77L67.16 93.64L67.22 93.51L67.27 93.38L67.33 93.25L67.38 93.12L67.43 92.98L67.49 92.85L67.54 92.71L67.59 92.57L67.64 92.43L67.68 92.29L67.73 92.15L67.78 92.01L67.82 91.86L67.87 91.72L67.91 91.57L67.95 91.42L67.99 91.27L68.03 91.12L68.07 90.97L68.11 90.82L68.15 90.66L68.19 90.51L68.22 90.35L68.26 90.19L68.29 90.03L68.32 89.87L68.39 89.54L68.44 89.21L68.5 88.87L68.54 88.54L68.59 88.21L68.63 87.87L68.66 87.54L68.68 87.21L68.71 86.87L68.72 86.54L68.74 86.21L68.74 85.88L68.74 85.54L68.74 85.21L68.73 84.88L68.71 84.55L68.7 84.21L68.67 83.88L68.64 83.55L68.6 83.22L68.56 82.89L68.52 82.56L68.47 82.23L68.41 81.89L68.35 81.56L68.28 81.23L68.21 80.9L68.14 80.57L68.05 80.24L67.97 79.91L67.87 79.58L67.78 79.25L67.67 78.92L67.57 78.59L67.45 78.26L67.33 77.93L67.21 77.6L67.08 77.27L66.95 76.94L66.81 76.62L66.66 76.29L66.52 75.96L66.36 75.64L66.21 75.31L66.04 74.99L65.88 74.67L65.71 74.35L65.53 74.04L65.35 73.72L65.16 73.41L64.98 73.09L64.78 72.78L64.58 72.48L64.38 72.17L64.17 71.86L63.96 71.56L63.75 71.26L63.53 70.96L63.3 70.66L63.07 70.36L62.84 70.07L62.6 69.77L62.35 69.48L62.11 69.19L61.85 68.9L61.6 68.61L61.34 68.33L61.07 68.04L60.8 67.76L60.53 67.48L60.25 67.2L59.96 66.92L59.68 66.65L59.38 66.37L59.09 66.1L58.78 65.83L58.48 65.56L58.17 65.29L57.85 65.03L57.53 64.76L57.23 64.52L56.93 64.28L56.63 64.05L56.33 63.82L56.02 63.59L55.72 63.37L55.41 63.15L55.11 62.94L54.8 62.73L54.49 62.53L54.18 62.33L53.87 62.13L53.55 61.94L53.24 61.76L52.93 61.57L52.61 61.4L52.3 61.22L51.98 61.05L51.66 60.89L51.34 60.73L51.02 60.57L50.7 60.42L50.37 60.27L50.05 60.13L49.73 59.99L49.4 59.86L49.07 59.73L48.74 59.6L48.42 59.48L48.09 59.36L47.75 59.25L47.42 59.14L47.09 59.04L46.76 58.94L46.42 58.84L46.08 58.75L45.75 58.66L45.41 58.58L45.07 58.5L44.73 58.43L45.33 65.68L45.58 65.71Z" id="a4Oohc3xNn"></path><path d="M80 180L99.83 61.81L200 40L181.55 144.99L80 180ZM150.5 80.05L150.22 80.06L149.94 80.08L149.66 80.11L149.37 80.14L149.07 80.18L148.78 80.22L148.47 80.27L148.17 80.33L147.85 80.39L147.54 80.45L147.21 80.53L146.89 80.61L146.56 80.69L146.22 80.78L145.88 80.88L145.54 80.98L145.19 81.09L144.83 81.21L144.47 81.33L144.14 81.44L143.8 81.56L143.47 81.69L143.14 81.81L142.8 81.94L142.47 82.07L142.13 82.2L141.8 82.34L141.47 82.48L141.13 82.62L140.8 82.77L140.47 82.92L140.14 83.07L139.8 83.23L139.47 83.38L139.14 83.54L138.81 83.71L138.48 83.87L138.15 84.04L137.82 84.22L137.49 84.39L137.16 84.57L136.83 84.75L136.5 84.94L136.17 85.12L135.84 85.31L135.51 85.51L135.18 85.7L134.85 85.9L134.52 86.1L134.19 86.31L133.87 86.52L133.54 86.73L133.21 86.94L132.88 87.16L132.56 87.38L132.23 87.6L131.9 87.83L131.58 88.06L131.25 88.29L132.44 93.76L132.58 93.65L132.72 93.54L132.87 93.43L133.01 93.32L133.15 93.21L133.29 93.11L133.43 93L133.56 92.9L133.7 92.8L133.84 92.7L133.97 92.6L134.11 92.5L134.24 92.41L134.37 92.31L134.5 92.22L134.63 92.13L134.76 92.04L134.89 91.95L135.02 91.86L135.15 91.77L135.27 91.69L135.4 91.6L135.52 91.52L135.65 91.44L135.77 91.36L135.89 91.28L136.01 91.2L136.13 91.12L136.25 91.05L136.37 90.97L136.49 90.9L136.6 90.83L136.72 90.76L136.83 90.69L136.95 90.62L137.06 90.55L137.17 90.49L137.28 90.42L137.39 90.36L137.5 90.3L137.61 90.24L137.72 90.18L137.83 90.12L137.94 90.06L138.05 90L138.16 89.95L138.27 89.89L138.38 89.83L138.49 89.78L138.6 89.72L138.71 89.66L138.82 89.61L138.93 89.56L139.04 89.5L139.15 89.45L139.26 89.4L139.37 89.35L139.48 89.3L139.59 89.24L139.7 89.19L139.81 89.15L139.92 89.1L140.03 89.05L140.14 89L140.26 88.95L140.37 88.91L140.48 88.86L140.59 88.81L140.7 88.77L140.81 88.72L140.93 88.68L141.04 88.64L141.15 88.59L141.26 88.55L141.37 88.51L141.49 88.47L141.6 88.43L141.71 88.39L141.83 88.35L141.94 88.31L142.14 88.24L142.34 88.18L142.54 88.12L142.73 88.06L142.92 88.01L143.11 87.96L143.29 87.91L143.47 87.87L143.65 87.83L143.83 87.79L144.01 87.76L144.18 87.73L144.35 87.7L144.51 87.68L144.67 87.66L144.83 87.65L144.99 87.64L145.15 87.63L145.3 87.62L145.45 87.62L145.59 87.62L145.74 87.63L145.88 87.64L146.02 87.65L146.15 87.67L146.28 87.69L146.41 87.71L146.54 87.74L146.67 87.77L146.79 87.8L146.91 87.84L147.02 87.88L147.14 87.92L147.25 87.97L147.35 88.02L147.46 88.08L147.56 88.14L147.66 88.2L147.76 88.26L147.85 88.33L147.94 88.41L148.03 88.48L148.12 88.56L148.2 88.64L148.28 88.73L148.35 88.82L148.43 88.91L148.5 89L148.56 89.1L148.63 89.2L148.69 89.31L148.75 89.42L148.8 89.53L148.85 89.64L148.9 89.76L148.95 89.88L148.99 90.01L149.03 90.14L149.07 90.27L149.1 90.4L149.13 90.54L149.16 90.68L149.19 90.83L149.21 90.98L149.23 91.13L149.24 91.28L149.26 91.44L149.27 91.6L149.27 91.76L149.28 91.93L149.28 92.1L149.28 92.28L149.27 92.46L149.26 92.64L149.25 92.82L149.24 93.01L149.22 93.2L149.2 93.39L149.18 93.59L149.15 93.79L149.12 94.01L149.08 94.23L149.04 94.45L149 94.67L148.96 94.89L148.91 95.11L148.85 95.32L148.8 95.54L148.74 95.75L148.68 95.96L148.61 96.17L148.54 96.38L148.47 96.59L148.4 96.79L148.32 97L148.23 97.2L148.15 97.4L148.06 97.61L147.97 97.81L147.87 98.01L147.77 98.2L147.67 98.4L147.57 98.6L147.46 98.79L147.35 98.98L147.23 99.17L147.11 99.37L146.99 99.55L146.86 99.74L146.73 99.93L146.6 100.12L146.47 100.3L146.33 100.48L146.19 100.66L146.04 100.85L145.89 101.03L145.74 101.2L145.58 101.38L145.42 101.56L145.26 101.73L145.22 101.78L145.17 101.83L145.12 101.88L145.08 101.93L145.03 101.98L144.98 102.03L144.93 102.08L144.89 102.13L144.84 102.18L144.79 102.23L144.74 102.28L144.7 102.33L144.65 102.37L144.6 102.42L144.55 102.47L144.51 102.51L144.46 102.56L144.41 102.6L144.36 102.65L144.31 102.7L144.26 102.74L144.22 102.78L144.17 102.83L144.12 102.87L144.07 102.92L144.02 102.96L143.97 103L143.92 103.05L143.87 103.09L143.83 103.13L143.78 103.17L143.73 103.21L143.68 103.25L143.63 103.29L143.58 103.34L143.53 103.38L143.48 103.42L143.43 103.46L143.38 103.49L143.33 103.53L143.28 103.57L143.23 103.61L143.18 103.65L143.12 103.69L143.07 103.73L143.02 103.77L142.97 103.8L142.91 103.84L142.86 103.88L142.8 103.92L142.75 103.96L142.69 104L142.64 104.03L142.58 104.07L142.53 104.11L142.47 104.15L142.41 104.19L142.35 104.23L142.3 104.26L142.24 104.3L142.18 104.34L142.12 104.38L142.06 104.41L142 104.45L141.94 104.49L141.88 104.53L141.81 104.57L141.75 104.6L141.69 104.64L141.62 104.68L141.56 104.72L141.5 104.75L141.43 104.79L141.37 104.83L141.3 104.87L141.24 104.9L141.17 104.94L141.1 104.98L141.04 105.01L140.97 105.05L140.9 105.09L140.83 105.13L140.76 105.16L140.69 105.2L140.62 105.24L140.55 105.27L140.48 105.31L140.41 105.35L140.34 105.38L140.26 105.42L140.19 105.46L140.12 105.49L140.04 105.53L139.97 105.57L139.9 105.6L139.82 105.64L139.74 105.68L139.67 105.71L139.59 105.75L139.51 105.79L139.44 105.82L139.36 105.86L139.28 105.9L139.2 105.93L139.12 105.97L139.04 106L138.96 106.04L138.88 106.08L138.79 106.11L138.71 106.15L138.63 106.18L138.55 106.22L138.46 106.26L138.38 106.29L138.29 106.33L138.21 106.36L138.12 106.4L138.04 106.44L137.95 106.47L137.86 106.51L137.77 106.54L137.69 106.58L137.6 106.62L137.51 106.65L137.42 106.69L137.32 106.72L137.23 106.76L137.14 106.8L137.05 106.83L136.95 106.87L136.86 106.91L136.76 106.95L136.66 106.98L136.57 107.02L136.47 107.06L136.37 107.09L136.27 107.13L136.17 107.17L136.07 107.21L135.97 107.25L135.87 107.28L135.76 107.32L135.66 107.36L135.55 107.4L135.45 107.44L135.34 107.47L135.24 107.51L135.13 107.55L135.02 107.59L134.91 107.63L134.8 107.67L134.69 107.71L134.58 107.75L134.47 107.79L134.35 107.83L134.24 107.87L134.13 107.91L134.01 107.95L133.9 107.99L133.78 108.03L133.03 108.28L132.15 114.7L132.75 114.49L132.78 114.47L132.81 114.45L132.84 114.44L132.87 114.42L132.91 114.4L132.94 114.39L132.97 114.37L133 114.35L133.03 114.34L133.06 114.32L133.09 114.31L133.12 114.29L133.15 114.28L133.18 114.26L133.21 114.25L133.25 114.23L133.28 114.22L133.31 114.2L133.34 114.19L133.37 114.17L133.4 114.16L133.43 114.14L133.46 114.13L133.49 114.12L133.52 114.1L133.55 114.09L133.58 114.08L133.61 114.07L133.64 114.05L133.67 114.04L133.7 114.03L133.73 114.02L133.76 114L133.79 113.99L133.83 113.98L133.86 113.97L133.89 113.96L133.92 113.95L133.95 113.94L133.98 113.93L134.07 113.9L134.19 113.85L134.25 113.83L134.37 113.79L134.43 113.77L134.52 113.74L134.58 113.72L134.67 113.69L134.73 113.67L134.82 113.64L134.91 113.61L135.03 113.57L135.15 113.53L135.18 113.52L135.51 113.4L135.84 113.3L136.16 113.19L136.48 113.09L136.79 113L137.1 112.91L137.4 112.82L137.7 112.74L137.99 112.67L138.28 112.59L138.56 112.53L138.84 112.47L139.11 112.41L139.38 112.35L139.64 112.3L139.9 112.26L140.15 112.22L140.4 112.18L140.64 112.15L140.88 112.13L141.11 112.11L141.33 112.09L141.56 112.08L141.77 112.07L141.99 112.07L142.19 112.07L142.39 112.07L142.59 112.08L142.78 112.1L142.97 112.12L143.15 112.14L143.33 112.17L143.5 112.2L143.67 112.24L143.83 112.28L143.99 112.33L144.14 112.38L144.29 112.43L144.43 112.49L144.56 112.56L144.7 112.63L144.82 112.7L144.95 112.78L145.07 112.87L145.18 112.96L145.29 113.05L145.4 113.15L145.5 113.26L145.6 113.37L145.69 113.48L145.78 113.6L145.87 113.73L145.95 113.86L146.03 113.99L146.1 114.13L146.17 114.28L146.23 114.43L146.29 114.58L146.34 114.74L146.4 114.91L146.44 115.08L146.48 115.26L146.52 115.44L146.56 115.62L146.59 115.81L146.61 116.01L146.63 116.21L146.65 116.42L146.66 116.63L146.67 116.85L146.67 117.07L146.67 117.29L146.67 117.53L146.66 117.76L146.64 118.01L146.62 118.25L146.6 118.5L146.58 118.76L146.55 119.02L146.51 119.29L146.48 119.53L146.44 119.77L146.4 120.01L146.36 120.24L146.31 120.48L146.26 120.71L146.21 120.94L146.16 121.17L146.1 121.4L146.04 121.63L145.98 121.85L145.91 122.07L145.84 122.3L145.77 122.52L145.7 122.74L145.62 122.95L145.54 123.17L145.46 123.38L145.38 123.6L145.29 123.81L145.2 124.02L145.11 124.23L145.01 124.43L144.91 124.64L144.81 124.84L144.71 125.04L144.6 125.25L144.49 125.44L144.38 125.64L144.26 125.84L144.14 126.03L144.02 126.23L143.9 126.42L143.77 126.61L143.64 126.8L143.51 126.98L143.37 127.17L143.24 127.35L143.09 127.54L142.95 127.72L142.81 127.89L142.66 128.07L142.51 128.24L142.36 128.42L142.2 128.58L142.05 128.75L141.89 128.91L141.73 129.07L141.57 129.23L141.41 129.39L141.25 129.54L141.08 129.69L140.91 129.84L140.74 129.98L140.57 130.12L140.4 130.26L140.22 130.4L140.05 130.53L139.87 130.66L139.69 130.79L139.5 130.92L139.32 131.04L139.13 131.16L138.95 131.28L138.76 131.4L138.56 131.51L138.37 131.62L138.17 131.73L137.98 131.83L137.78 131.94L137.58 132.04L137.38 132.13L137.17 132.23L136.96 132.32L136.76 132.41L136.55 132.5L136.33 132.58L136.12 132.66L135.91 132.74L135.69 132.82L135.54 132.87L135.4 132.91L135.25 132.96L135.1 133L134.96 133.05L134.81 133.09L134.67 133.13L134.53 133.17L134.38 133.21L134.24 133.24L134.1 133.28L133.96 133.31L133.81 133.35L133.67 133.38L133.53 133.4L133.39 133.43L133.25 133.46L133.11 133.48L132.97 133.51L132.84 133.53L132.7 133.55L132.56 133.57L132.42 133.58L132.29 133.6L132.15 133.61L132.01 133.63L131.88 133.64L131.74 133.65L131.61 133.66L131.47 133.66L131.34 133.67L131.21 133.67L131.07 133.68L130.94 133.68L130.81 133.68L130.68 133.68L130.55 133.67L130.42 133.67L130.29 133.66L130.16 133.65L130.03 133.64L129.9 133.63L129.77 133.62L129.63 133.61L129.5 133.59L129.37 133.57L129.24 133.56L129.11 133.54L128.98 133.51L128.84 133.49L128.71 133.46L128.58 133.44L128.45 133.41L128.31 133.38L128.18 133.35L128.04 133.31L127.91 133.28L127.78 133.24L127.64 133.2L127.51 133.16L127.37 133.12L127.24 133.08L127.1 133.03L126.96 132.98L126.83 132.94L126.69 132.89L126.55 132.84L126.42 132.78L126.28 132.73L126.14 132.67L126 132.61L125.86 132.55L125.73 132.49L125.59 132.43L125.45 132.37L125.31 132.3L125.17 132.23L125.03 132.16L124.89 132.09L124.75 132.02L120.55 139.14L120.89 139.27L121.23 139.4L121.58 139.52L121.93 139.63L122.29 139.74L122.64 139.84L123 139.93L123.36 140.02L123.72 140.09L124.08 140.16L124.44 140.23L124.81 140.28L125.18 140.33L125.55 140.37L125.92 140.41L126.3 140.44L126.68 140.46L127.05 140.47L127.44 140.48L127.82 140.48L128.2 140.47L128.59 140.46L128.98 140.43L129.37 140.41L129.77 140.37L130.16 140.33L130.56 140.28L130.96 140.22L131.36 140.16L131.77 140.08L132.17 140.01L132.58 139.92L132.99 139.83L133.4 139.73L133.82 139.62L134.23 139.51L134.65 139.39L135.07 139.26L135.49 139.12L135.92 138.98L136.11 138.92L136.29 138.85L136.48 138.78L136.67 138.72L136.85 138.65L137.04 138.58L137.22 138.5L137.4 138.43L137.59 138.35L137.77 138.28L137.95 138.2L138.13 138.12L138.31 138.04L138.49 137.96L138.67 137.88L138.85 137.8L139.03 137.71L139.21 137.63L139.39 137.54L139.56 137.45L139.74 137.36L139.91 137.27L140.09 137.18L140.26 137.09L140.44 136.99L140.61 136.9L140.78 136.8L140.95 136.7L141.12 136.6L141.3 136.5L141.47 136.4L141.64 136.3L141.8 136.19L141.97 136.09L142.14 135.98L142.31 135.87L142.47 135.77L142.64 135.66L142.8 135.55L142.97 135.43L143.13 135.32L143.3 135.21L143.46 135.09L143.62 134.97L143.78 134.86L143.94 134.74L144.1 134.62L144.25 134.5L144.41 134.38L144.57 134.26L144.72 134.14L144.87 134.01L145.03 133.89L145.18 133.76L145.33 133.64L145.48 133.51L145.63 133.38L145.77 133.26L145.92 133.13L146.07 133L146.21 132.86L146.35 132.73L146.5 132.6L146.64 132.46L146.78 132.33L146.92 132.19L147.06 132.06L147.2 131.92L147.34 131.78L147.47 131.64L147.61 131.5L147.74 131.36L147.87 131.22L148.01 131.07L148.14 130.93L148.27 130.78L148.4 130.64L148.53 130.49L148.66 130.34L148.78 130.19L148.91 130.04L149.03 129.9L149.16 129.74L149.28 129.59L149.4 129.44L149.52 129.29L149.64 129.14L149.76 128.98L149.88 128.83L149.99 128.67L150.11 128.52L150.22 128.36L150.33 128.2L150.45 128.05L150.56 127.89L150.67 127.73L150.77 127.57L150.88 127.41L150.99 127.25L151.09 127.09L151.2 126.92L151.3 126.76L151.4 126.6L151.5 126.43L151.6 126.27L151.7 126.1L151.8 125.94L151.9 125.77L151.99 125.6L152.09 125.43L152.18 125.26L152.27 125.09L152.36 124.92L152.45 124.75L152.54 124.58L152.63 124.41L152.72 124.24L152.8 124.06L152.89 123.89L152.97 123.72L153.05 123.54L153.13 123.36L153.21 123.19L153.29 123.01L153.37 122.84L153.45 122.66L153.52 122.48L153.59 122.3L153.66 122.13L153.73 121.95L153.8 121.77L153.87 121.59L153.93 121.41L154 121.24L154.06 121.06L154.12 120.88L154.18 120.7L154.24 120.52L154.29 120.34L154.35 120.16L154.4 119.98L154.45 119.8L154.5 119.62L154.55 119.44L154.6 119.26L154.65 119.07L154.69 118.89L154.74 118.71L154.78 118.53L154.82 118.35L154.86 118.16L154.89 117.98L154.93 117.8L154.97 117.61L155 117.43L155.03 117.25L155.06 117.06L155.09 116.88L155.12 116.69L155.14 116.51L155.17 116.34L155.19 116.17L155.21 116L155.23 115.83L155.24 115.66L155.26 115.5L155.27 115.33L155.28 115.17L155.29 115.01L155.3 114.85L155.31 114.69L155.31 114.54L155.31 114.38L155.32 114.23L155.32 114.07L155.31 113.92L155.31 113.77L155.31 113.62L155.3 113.48L155.29 113.33L155.28 113.18L155.27 113.04L155.26 112.9L155.25 112.76L155.23 112.62L155.21 112.48L155.19 112.34L155.17 112.21L155.15 112.07L155.13 111.94L155.1 111.81L155.07 111.68L155.04 111.55L155.01 111.42L154.98 111.29L154.95 111.17L154.91 111.05L154.87 110.92L154.84 110.8L154.8 110.68L154.75 110.56L154.71 110.45L154.67 110.33L154.62 110.22L154.57 110.11L154.52 110L154.47 109.9L154.42 109.79L154.37 109.69L154.31 109.59L154.26 109.49L154.2 109.39L154.14 109.29L154.08 109.2L154.02 109.11L153.96 109.02L153.89 108.93L153.82 108.84L153.76 108.76L153.69 108.67L153.62 108.59L153.55 108.51L153.47 108.44L153.4 108.36L153.32 108.29L153.25 108.22L153.17 108.15L153.09 108.08L153.01 108.01L152.92 107.95L152.84 107.89L152.75 107.83L152.67 107.77L152.58 107.71L152.49 107.66L152.4 107.6L152.3 107.55L152.21 107.5L152.11 107.46L152.02 107.41L151.98 107.39L151.95 107.38L151.92 107.36L151.88 107.35L151.85 107.33L151.82 107.32L151.78 107.3L151.75 107.29L151.72 107.27L151.69 107.26L151.65 107.25L151.62 107.23L151.59 107.22L151.56 107.21L151.53 107.19L151.5 107.18L151.46 107.17L151.43 107.15L151.4 107.14L151.37 107.13L151.34 107.12L151.31 107.11L151.28 107.09L151.25 107.08L151.22 107.07L151.19 107.06L151.16 107.05L151.13 107.04L151.1 107.03L151.07 107.02L151.04 107.01L151.02 107L150.99 106.99L150.96 106.98L150.93 106.97L150.9 106.96L150.87 106.95L150.85 106.94L150.82 106.93L150.79 106.93L150.76 106.92L150.73 106.91L150.71 106.9L150.68 106.89L150.65 106.89L150.62 106.88L150.59 106.87L150.56 106.86L150.53 106.86L150.5 106.85L150.47 106.84L150.44 106.84L150.41 106.83L150.38 106.82L150.35 106.82L150.32 106.81L150.29 106.8L150.26 106.8L150.23 106.79L150.2 106.79L150.17 106.78L150.14 106.77L150.1 106.77L150.07 106.76L150.04 106.76L150.01 106.75L149.97 106.75L149.94 106.74L149.91 106.74L149.87 106.73L149.84 106.73L149.81 106.72L149.77 106.72L149.74 106.72L149.7 106.71L149.67 106.71L149.64 106.7L149.6 106.7L149.56 106.7L149.53 106.69L149.49 106.69L149.46 106.69L149.42 106.68L149.39 106.68L149.35 106.68L149.31 106.68L149.28 106.67L149.24 106.67L149.2 106.67L149.17 106.67L149.13 106.67L149.09 106.67L149.05 106.67L149.01 106.66L148.98 106.66L148.94 106.66L148.9 106.66L148.86 106.66L148.82 106.66L148.78 106.66L148.74 106.66L148.7 106.66L148.66 106.66L148.62 106.66L148.58 106.66L148.54 106.66L148.5 106.67L148.46 106.67L148.42 106.67L148.38 106.67L148.34 106.67L148.29 106.67L148.25 106.67L148.21 106.68L148.17 106.68L148.13 106.68L148.08 106.68L148.04 106.69L148 106.69L147.95 106.69L147.91 106.7L147.87 106.7L147.82 106.7L147.77 106.71L147.73 106.71L147.68 106.71L147.63 106.72L147.59 106.72L147.54 106.72L147.49 106.73L147.44 106.73L147.39 106.74L147.34 106.74L147.29 106.75L147.24 106.75L147.19 106.75L147.13 106.76L147.08 106.76L147.03 106.77L146.97 106.77L146.92 106.78L146.86 106.78L146.81 106.79L146.75 106.79L146.69 106.8L146.64 106.8L146.58 106.81L146.52 106.82L146.46 106.82L146.4 106.83L146.34 106.83L146.28 106.84L146.22 106.84L146.16 106.85L146.09 106.86L146.03 106.86L145.97 106.87L145.9 106.88L145.84 106.88L145.77 106.89L146.03 106.74L146.28 106.59L146.52 106.43L146.77 106.28L147.01 106.12L147.25 105.96L147.49 105.8L147.72 105.63L147.96 105.47L148.19 105.3L148.42 105.13L148.64 104.96L148.86 104.79L149.09 104.62L149.3 104.44L149.52 104.26L149.73 104.08L149.94 103.9L150.15 103.72L150.36 103.53L150.56 103.35L150.76 103.16L150.96 102.97L151.16 102.78L151.35 102.58L151.54 102.39L151.73 102.19L151.92 101.99L152.1 101.79L152.29 101.58L152.46 101.38L152.64 101.17L152.82 100.96L152.99 100.75L153.16 100.54L153.32 100.32L153.49 100.11L153.65 99.89L153.81 99.67L153.97 99.45L154.12 99.23L154.27 99L154.42 98.78L154.57 98.55L154.71 98.33L154.85 98.1L154.99 97.87L155.12 97.64L155.25 97.41L155.38 97.18L155.5 96.95L155.62 96.71L155.74 96.48L155.86 96.24L155.97 96.01L156.08 95.77L156.19 95.53L156.29 95.3L156.39 95.06L156.49 94.82L156.58 94.57L156.67 94.33L156.76 94.09L156.85 93.84L156.93 93.6L157.01 93.35L157.08 93.11L157.16 92.86L157.23 92.61L157.3 92.36L157.36 92.11L157.42 91.86L157.48 91.6L157.53 91.35L157.59 91.09L157.64 90.84L157.68 90.58L157.73 90.32L157.77 90.07L157.8 89.81L157.84 89.49L157.88 89.17L157.91 88.87L157.94 88.56L157.95 88.26L157.97 87.97L157.98 87.68L157.98 87.4L157.98 87.12L157.97 86.85L157.96 86.59L157.94 86.32L157.91 86.07L157.88 85.82L157.85 85.57L157.81 85.33L157.76 85.09L157.71 84.86L157.65 84.64L157.59 84.42L157.52 84.2L157.45 84L157.37 83.79L157.29 83.59L157.2 83.4L157.1 83.21L157 83.03L156.89 82.85L156.78 82.68L156.66 82.51L156.54 82.35L156.41 82.19L156.28 82.04L156.14 81.89L156 81.75L155.85 81.61L155.69 81.48L155.53 81.35L155.36 81.23L155.19 81.12L155.01 81.01L154.83 80.9L154.65 80.8L154.45 80.71L154.26 80.63L154.06 80.54L153.85 80.47L153.64 80.4L153.43 80.34L153.21 80.28L152.99 80.23L152.76 80.19L152.53 80.15L152.29 80.11L152.05 80.09L151.8 80.06L151.55 80.05L151.29 80.04L151.03 80.04L150.77 80.04L150.5 80.05ZM120.55 139.14L120.54 139.14L120.54 139.15L120.55 139.14Z" id="cpd5cCuo6"></path><path d="M193.79 43.17L99.64 64.05L20.98 12.49L112.16 4L193.79 43.17Z" id="crhtE15f0"></path><path d="M136.41 31.72C135.4 31.8 134.25 31.92 132.96 32.09C131.68 32.26 130.41 32.44 129.16 32.64C125.94 33.16 100.21 37.34 96.99 37.86C94 38.34 91.97 38.82 90.89 39.28C89.71 38.62 80.22 33.31 79.03 32.64C79.86 32.64 80.91 32.59 82.2 32.46C83.48 32.32 84.86 32.13 86.33 31.89C88.5 31.54 99.36 29.78 118.9 26.61C116.58 25.42 115.29 24.77 115.04 24.64C113.68 23.94 112.28 23.26 110.84 22.58C109.39 21.9 108.21 21.35 107.28 20.92C107.56 20.82 108.98 20.33 111.53 19.44C126.46 26.81 134.76 30.9 136.41 31.72Z" id="bhLpg19Jz"></path><path d="M20.89 12.82L98.9 64.5L79.75 176L4 111.66L20.89 12.82Z" id="bbqcQOJeD"></path><path d="M38.14 101.62C40.16 101.4 42.35 100.91 44.72 100.16C47.08 99.41 49.52 98.44 52.02 97.26C53.66 96.52 55.08 95.75 56.28 94.98C57.47 94.2 58.48 93.36 59.31 92.46C60.14 91.56 60.8 90.61 61.29 89.61C61.79 88.6 62.15 87.49 62.4 86.29C62.92 83.68 62.71 81.14 61.76 78.66C60.81 76.18 59.2 74.02 56.92 72.17C54.06 69.86 51.03 68.53 47.82 68.18C47.76 67.49 47.3 62.02 47.25 61.33C51.59 62.24 55.67 64.23 59.49 67.31C63.59 70.63 66.55 74.36 68.36 78.5C70.16 82.64 70.65 86.81 69.8 91.01C69.4 93.04 68.74 94.76 67.83 96.16C66.92 97.56 65.62 98.91 63.91 100.22C62.39 101.3 60.69 102.34 58.8 103.34C58 103.75 57.09 104.16 56.1 104.56C55.1 104.97 54.08 105.35 53.05 105.72C52.01 106.08 50.95 106.42 49.88 106.73C48.8 107.04 47.78 107.31 46.83 107.55C48.07 108.56 58.07 116.64 59.32 117.65C60.23 118.39 61.05 119.03 61.79 119.57C62.53 120.11 63.27 120.62 64.01 121.11C63.93 121.54 63.5 123.66 62.73 127.49L37.1 106.76C37.73 103.67 38.07 101.96 38.14 101.62Z" id="agBvFfkZ5"></path><path d="M193.05 43.48L98.81 65.11L79.77 176L175.56 142.79L193.05 43.48Z" id="axbSUu5R8"></path><path d="M122.72 128.28C124.49 129.21 126.19 129.73 127.82 129.83C129.46 129.94 131.19 129.67 133.04 129.04C135.79 128.09 138.07 126.48 139.89 124.2C141.72 121.92 142.84 119.26 143.25 116.21C143.72 112.8 143.11 110.67 141.41 109.82C139.73 108.98 136.78 109.28 132.56 110.73C132.18 110.86 131.81 110.99 131.43 111.12C131.05 111.25 130.66 111.43 130.27 111.65C130.23 111.67 130.04 111.73 129.7 111.85L130.53 105.77C130.96 105.62 131.2 105.54 131.24 105.52C132.71 105.02 133.99 104.54 135.09 104.08C136.19 103.63 137.17 103.17 138.02 102.7C138.88 102.23 139.62 101.75 140.25 101.26C140.88 100.77 141.49 100.2 142.07 99.55C144.13 97.35 145.36 94.84 145.74 92.02C146.09 89.46 145.68 87.74 144.52 86.84C143.35 85.95 141.49 85.94 138.94 86.82C137.52 87.31 136.12 87.94 134.75 88.71C133.39 89.48 131.79 90.57 129.97 91.99C129.86 91.47 128.97 87.32 128.86 86.8C132.96 83.85 137.12 81.65 141.33 80.2C145.87 78.64 149.24 78.57 151.44 80C153.63 81.43 154.46 84.18 153.9 88.24C153.45 91.53 152.25 94.58 150.28 97.39C148.32 100.2 145.75 102.56 142.56 104.45C143.38 104.36 144.06 104.3 144.61 104.26C145.16 104.22 145.65 104.22 146.1 104.26C146.54 104.31 146.94 104.38 147.29 104.48C147.63 104.59 148.02 104.74 148.44 104.94C149.67 105.5 150.55 106.54 151.07 108.04C151.58 109.55 151.69 111.39 151.39 113.57C151.08 115.91 150.39 118.19 149.34 120.41C148.3 122.62 146.98 124.67 145.39 126.55C143.8 128.44 141.98 130.1 139.91 131.52C137.84 132.95 135.63 134.08 133.26 134.89C127.91 136.73 123.07 136.78 118.76 135.04C118.76 135.04 118.76 135.04 118.76 135.05C121.14 130.99 122.46 128.73 122.72 128.28Z" id="d51doQxYz7"></path></defs><g><g><g><use xlink:href="#c1hl6eZtj" opacity="1" fill="#009fbf" fill-opacity="1"></use><g><use xlink:href="#c1hl6eZtj" opacity="1" fill-opacity="0" stroke="#000000" stroke-width="1" stroke-opacity="0"></use></g></g><g><use xlink:href="#a4Oohc3xNn" opacity="1" fill="#0095b7" fill-opacity="1"></use><g><use xlink:href="#a4Oohc3xNn" opacity="1" fill-opacity="0" stroke="#000000" stroke-width="1" stroke-opacity="0"></use></g></g><g><use xlink:href="#cpd5cCuo6" opacity="1" fill="#0084a9" fill-opacity="1"></use><g><use xlink:href="#cpd5cCuo6" opacity="1" fill-opacity="0" stroke="#000000" stroke-width="1" stroke-opacity="0"></use></g></g><g><use xlink:href="#crhtE15f0" opacity="1" fill="#009fbf" fill-opacity="1"></use><g><use xlink:href="#crhtE15f0" opacity="1" fill-opacity="0" stroke="#009fbf" stroke-width="0.5" stroke-opacity="1"></use></g></g><g><use xlink:href="#bhLpg19Jz" opacity="1" fill="#ffffff" fill-opacity="1"></use><g><use xlink:href="#bhLpg19Jz" opacity="1" fill-opacity="0" stroke="#000000" stroke-width="1" stroke-opacity="0"></use></g></g><g><use xlink:href="#bbqcQOJeD" opacity="1" fill="#0095b7" fill-opacity="1"></use><g><use xlink:href="#bbqcQOJeD" opacity="1" fill-opacity="0" stroke="#0095b7" stroke-width="0.5" stroke-opacity="1"></use></g></g><g><use xlink:href="#agBvFfkZ5" opacity="1" fill="#ffffff" fill-opacity="1"></use><g><use xlink:href="#agBvFfkZ5" opacity="1" fill-opacity="0" stroke="#000000" stroke-width="1" stroke-opacity="0"></use></g></g><g><use xlink:href="#axbSUu5R8" opacity="1" fill="#0084a9" fill-opacity="1"></use><g><use xlink:href="#axbSUu5R8" opacity="1" fill-opacity="0" stroke="#0084a9" stroke-width="0.5" stroke-opacity="1"></use></g></g><g><use xlink:href="#d51doQxYz7" opacity="1" fill="#ffffff" fill-opacity="1"></use><g><use xlink:href="#d51doQxYz7" opacity="1" fill-opacity="0" stroke="#000000" stroke-width="1" stroke-opacity="0"></use></g></g></g></g></svg>