<?xml version="1.0" encoding="utf-8"?>
<svg version="1.1" id="Layer_1" xmlns="http://www.w3.org/2000/svg" xmlns:xlink="http://www.w3.org/1999/xlink" x="0px" y="0px"
     viewBox="0 0 160 160" style="enable-background:new 0 0 160 160;" xml:space="preserve">
<!-- <symbol id="123testlogoIcon" viewBox="0 0 50 45" width="100%" height="100%"> -->
        <g fill="none" fill-rule="evenodd">
            <path fill="#009FBF"
                d="M28.7427979,0 L50,10.437999 L25.4834601,16 L5,2.26171626 L28.7427979,0 Z M35.0585521,7.38628625 L28.5801668,4.11315037 L27.4709699,4.50857267 C27.7130567,4.62271759 28.0220834,4.7694103 28.3985976,4.95016809 C28.7748397,5.13152187 29.138538,5.31428012 29.4919055,5.49891539 L30.497356,6.02407603 L22.0175544,7.43225851 C21.6343369,7.49564908 21.2748304,7.54564352 20.9401467,7.58254436 C20.6060224,7.61890993 20.3318513,7.6327007 20.1171042,7.6327007 L23.2048485,9.40148656 C23.4843073,9.27746023 24.0136718,9.15175521 24.7937684,9.02300901 L33.1687009,7.63218667 C33.4941794,7.57816955 33.8249613,7.52903267 34.1604821,7.48448968 C34.4954442,7.4400408 34.794989,7.40777229 35.0585521,7.38628625 Z">
            </path>
            <path fill="#0095B7" fill-rule="nonzero"
                d="M0,28.1766875 L4.41514352,2 L25,15.5411785 L20.1137864,45 L0,28.1766875 Z M8.80145658,25.2760871 L8.53043983,26.6381429 L15.2320501,32.127866 L15.5664042,30.4393183 C15.3709828,30.3096644 15.1772745,30.1735195 14.9847055,30.0309475 C14.7927099,29.8874851 14.5778949,29.719077 14.3388246,29.5229459 L11.0723204,26.846655 C11.3230856,26.785333 11.5892549,26.7126125 11.8702597,26.6306556 C12.1518356,26.5488226 12.4274202,26.4586117 12.6992949,26.361804 C12.9700299,26.2649504 13.2359151,26.1631114 13.4963813,26.0568377 C13.7565583,25.9502107 13.9930591,25.8411918 14.2036012,25.7316956 C14.6971408,25.4664798 15.1421852,25.1927805 15.5384436,24.9075127 C15.9852001,24.5601564 16.3269694,24.2006945 16.5643276,23.8301416 C16.8019694,23.4598641 16.9734213,23.0060046 17.0804047,22.4684392 C17.3012132,21.3555823 17.1745482,20.2502725 16.7021165,19.1537858 C16.229403,18.0569458 15.4557127,17.0694321 14.3833275,16.1902945 C13.3859751,15.373475 12.3184418,14.8465875 11.1821539,14.6074374 L11.3327849,16.4202082 C12.170949,16.5123977 12.9640398,16.8650011 13.7117708,17.4775273 C14.3074423,17.9661059 14.728806,18.5383446 14.9775739,19.1952853 C15.2249167,19.8519966 15.2802611,20.5253077 15.1436097,21.2163386 C15.0802781,21.5355726 14.9838538,21.8291403 14.8554745,22.0952467 C14.7270951,22.3618121 14.5539271,22.6138803 14.336541,22.8519102 C14.1191542,23.0904772 13.855268,23.3129036 13.5431661,23.5180202 C13.2313501,23.7233309 12.8601952,23.9261442 12.4308442,24.1237092 C11.7766862,24.4361628 11.1402177,24.6913297 10.5217211,24.8903758 C9.90265636,25.0896056 9.32894904,25.2186167 8.80145658,25.2760871 Z">
            </path>
            <path fill="#0084A9"
                d="M45.3873144,36.2481505 L20,45 L24.9570312,15.4537463 L50,10 L45.3873144,36.2481505 Z M30.136096,34.787588 L30.136096,34.784959 C31.2799838,35.244334 32.5611559,35.2310979 33.9796028,34.7452656 C34.6068084,34.5324184 35.1942921,34.2343247 35.742323,33.8582291 C36.2903544,33.4824434 36.7743379,33.0455913 37.1956294,32.5485114 C37.6169209,32.0523692 37.9655206,31.512353 38.2427778,30.9288367 C38.5205764,30.3440203 38.7016319,29.7438062 38.7859452,29.1269595 C38.8645834,28.5529591 38.8359371,28.0674662 38.6989299,27.6706664 C38.5616515,27.2743883 38.3297919,27.0007656 38.004165,26.8523973 C37.8912065,26.7988481 37.7896004,26.759554 37.6974505,26.7315376 C37.6055723,26.7039829 37.5007217,26.6853468 37.38236,26.6730351 C37.2642678,26.6631654 37.1332065,26.6625849 36.9883627,26.6730351 C36.8429769,26.683588 36.6613816,26.6999638 36.4433034,26.7221573 C37.2888596,26.2242447 37.9717366,25.603851 38.4919307,24.8623512 C39.01186,24.1210822 39.3320825,23.3178813 39.4507134,22.4516066 C39.5974513,21.3800313 39.3799135,20.655995 38.7975634,20.2793593 C38.2157554,19.9019988 37.3226395,19.9198639 36.1184854,20.3318744 C35.0016168,20.7146822 33.8993434,21.294948 32.8121975,22.0719473 L33.1089134,23.4392713 C33.5904668,23.0655208 34.0131098,22.7771767 34.37576,22.5750284 C34.7384107,22.3723399 35.1078189,22.206739 35.4845223,22.0773622 C36.1617231,21.8459003 36.6540859,21.8481992 36.9629614,22.0832249 C37.2715662,22.3182968 37.3801979,22.7735206 37.2875086,23.4474791 C37.1856312,24.1912778 36.861893,24.8524769 36.3154854,25.4327889 C36.1603722,25.6043911 35.9993142,25.7535765 35.8320396,25.8834934 C35.6650384,26.0124685 35.4683092,26.1395002 35.2421242,26.2627073 C35.0156717,26.3866206 34.7570599,26.5076049 34.4654766,26.626752 C34.1744369,26.7465637 33.8339435,26.8726537 33.4450848,27.006319 L33.256732,27.0708689 L33.0370332,28.6740358 L33.1875543,28.6220688 C33.2910479,28.5639598 33.3937386,28.5165964 33.4939932,28.4815448 C33.5942484,28.4475733 33.6942377,28.4134311 33.794495,28.3789657 C34.9113598,27.9962826 35.6936798,27.9161665 36.1409146,28.1396514 C36.5895019,28.3622731 36.7513684,28.9233166 36.6276028,29.8227036 C36.5176185,30.6264543 36.2209032,31.3285216 35.7377286,31.9289977 C35.2550944,32.529764 34.6492345,32.9545138 33.9220401,33.2038922 C33.4321096,33.3712075 32.9713674,33.4418971 32.5389943,33.4132945 C32.1060813,33.3862215 31.6558766,33.2488199 31.1872972,33.0048985 L30.136096,34.787588 Z">
            </path>
        </g>
        <g id="Icons" stroke="none" stroke-width="1" fill="none" fill-rule="evenodd">
            <g id="Artboard" fill-rule="nonzero">
                <g transform="translate(1.000000, 1.000000)">
                    <polygon id="polygon3394" stroke="#009FBF" stroke-width="0.5" fill="#009FBF" stroke-linejoin="round"
                        points="27.0398857 0 47.4482759 9.79297304 23.910695 15.0112649 4.24515086 2.12195137">
                    </polygon>
                    <path
                        d="M26.8837485,3.85897436 L33.1034483,6.92984372 C32.8504094,6.95000201 32.5628255,6.98027645 32.2412387,7.02197858 C31.9191154,7.06376899 31.6015418,7.10986941 31.2890599,7.16054849 L23.2485431,8.46542366 C22.4995962,8.58621386 21.9913695,8.70415082 21.7230696,8.82051282 L18.7586207,7.16103075 C18.9647928,7.16103075 19.2280161,7.1480922 19.5487987,7.11397388 C19.8701183,7.07935335 20.2152694,7.03244837 20.5831849,6.97297508 L28.7243833,5.65181256 L27.759081,5.15910473 C27.4198236,4.98587917 27.070648,4.81441463 26.7094295,4.64426778 C26.3479497,4.47468009 26.0512626,4.3370524 25.8188425,4.22996117 L26.8837485,3.85897436 Z"
                        id="path3448" fill="#FFFFFF"></path>
                    <polygon id="polygon3390" stroke="#0095B7" stroke-width="0.5" fill="#0095B7" stroke-linejoin="round"
                        points="0 26.9146916 4.22160976 2.20512821 23.7241379 15.1249728 18.938496 43"></polygon>
                    <path
                        d="M8.27586207,25.6897542 L8.53499905,24.4040375 C9.03936935,24.3497881 9.58792874,24.2280077 10.1798574,24.0399442 C10.7712427,23.852054 11.3798122,23.6111885 12.0052958,23.3162469 C12.4158266,23.1297548 12.7707123,22.9383086 13.0688601,22.744505 C13.3672813,22.5508844 13.6196003,22.3409245 13.8274581,22.1157284 C14.0353154,21.8910393 14.2008927,21.6530988 14.3236446,21.4014735 C14.4463966,21.1502816 14.5385942,20.8731675 14.5991497,20.5718256 C14.7298111,19.9195249 14.6768927,19.2839509 14.440392,18.6640463 C14.2025286,18.043925 13.799635,17.5037586 13.2300742,17.0425634 C12.5151192,16.4643674 11.7567929,16.1315263 10.955369,16.0445038 L10.8113407,14.3333333 C11.8978205,14.5590798 12.9185594,15.0564369 13.8721938,15.8274761 C14.897572,16.6573406 15.6373483,17.5895072 16.0893408,18.6248727 C16.5410639,19.6599046 16.6621766,20.7032651 16.4510471,21.7537498 C16.3487532,22.2611863 16.1848167,22.6896083 15.9575918,23.0391329 C15.7306379,23.3889174 15.4038498,23.7282325 14.9766765,24.0561206 C14.5977877,24.3254 14.1722513,24.5837593 13.7003456,24.8341105 C13.4990325,24.9374698 13.2728985,25.0403785 13.0241261,25.1410294 C12.7750772,25.2413467 12.5208467,25.337478 12.2619792,25.4289032 C12.0020219,25.5202852 11.7385172,25.60544 11.469284,25.6826865 C11.2005968,25.76005 10.9460948,25.8286948 10.7063217,25.8865798 L13.8296417,28.4128727 C14.0582325,28.5980112 14.2636313,28.7569805 14.447211,28.8924024 C14.6313389,29.0269836 14.8165561,29.1554981 15.0034114,29.2778852 L14.6837134,30.8717949 L8.27586207,25.6897542 Z"
                        id="path3452" fill="#FFFFFF"></path>
                    <polygon id="polygon3392" stroke="#0084A9" stroke-width="0.5" fill="#0084A9" stroke-linejoin="round"
                        points="43.0749783 34.6984581 47.4492188 9.8689716 23.8873922 15.2778884 19.1290409 43">
                    </polygon>
                    <path
                        d="M28.6896552,32.7617636 L29.6811739,31.0707986 C30.1231495,31.3021695 30.5477936,31.4325014 30.9561277,31.4581814 C31.3639527,31.4853124 31.798536,31.41826 32.2606504,31.2595535 C32.946558,31.0230063 33.51802,30.6201111 33.9732524,30.0502559 C34.4289945,29.480676 34.7088637,28.8147321 34.8126035,28.0523366 C34.9293423,27.1992257 34.7766659,26.6670494 34.3535473,26.4558823 C33.9317045,26.2438963 33.1938011,26.3198902 32.1403468,26.6828832 C32.0457816,26.7155752 31.9514693,26.7479607 31.8569062,26.7801842 C31.7623436,26.8134324 31.6654832,26.8583588 31.5678654,26.9134779 L31.4258903,26.962771 L31.6331155,25.4420917 L31.8107745,25.3808631 C32.1775556,25.2540752 32.4987173,25.1344729 32.7732331,25.0208258 C33.0482616,24.9078092 33.2921906,24.7930499 33.5057861,24.6755122 C33.7191294,24.5586445 33.9046892,24.438149 34.0622088,24.31581 C34.2199863,24.1925777 34.3719002,24.0510683 34.5182068,23.8882956 C35.0335918,23.3378422 35.3389496,22.7106638 35.4350429,22.0051356 C35.5224697,21.3658541 35.4200056,20.9340529 35.128922,20.7110762 C34.837583,20.4881432 34.3731744,20.4859626 33.734422,20.7055151 C33.3791061,20.8282351 33.0306712,20.9853154 32.6886102,21.1775749 C32.3465496,21.3693221 31.9479024,21.6428301 31.4936894,21.9973501 L31.2138197,20.7003788 C32.2392424,19.9633583 33.2789337,19.4129488 34.3323916,19.0498377 C35.4681792,18.6590263 36.310588,18.6420803 36.8593636,19.0000245 C37.4086504,19.3572813 37.6138374,20.0440638 37.4754307,21.0605036 C37.3635351,21.882206 37.0614934,22.6440799 36.5710833,23.3472085 C36.0804235,24.050556 35.4363171,24.6390287 34.6387678,25.1113223 C34.8444645,25.0902707 35.0157496,25.0747375 35.1528811,25.0647276 C35.2895013,25.0548151 35.4131216,25.0553657 35.524509,25.0647276 C35.6361507,25.0764058 35.7350484,25.094083 35.8217101,25.12022 C35.9086282,25.1467948 36.0044655,25.1840671 36.1110108,25.2348611 C36.41815,25.3755954 36.6368457,25.6351394 36.7663301,26.0110279 C36.8955586,26.3874112 36.9225784,26.8479241 36.848405,27.3923905 C36.7688786,27.9774987 36.5981027,28.5468301 36.3360762,29.101556 C36.0745604,29.6550487 35.7457526,30.1672796 35.3483802,30.6378939 C34.9510077,31.1093976 34.4945025,31.5237724 33.9775859,31.8802229 C33.4606698,32.2369673 32.9065407,32.5197233 32.314945,32.7216189 C30.9770312,33.1824537 29.7685982,33.1950088 28.6896552,32.7592699 L28.6896552,32.7617636 Z"
                        id="path3456" fill="#FFFFFF"></path>
                </g>
            </g>
        </g>
    <!-- </symbol> -->
</svg>