<?xml version="1.0" standalone="no"?>
<!DOCTYPE svg PUBLIC "-//W3C//DTD SVG 20010904//EN"
 "http://www.w3.org/TR/2001/REC-SVG-20010904/DTD/svg10.dtd">
<svg version="1.0" xmlns="http://www.w3.org/2000/svg"
 width="526.000000pt" height="526.000000pt" viewBox="0 0 526.000000 526.000000"
 preserveAspectRatio="xMidYMid meet">
<metadata>
Created by potrace 1.11, written by Peter Selinger 2001-2013
</metadata>
<g transform="translate(0.000000,526.000000) scale(0.100000,-0.100000)"
fill="#000000" stroke="none">
<path d="M2880 5010 c-36 -5 -90 -12 -120 -15 -30 -3 -68 -8 -85 -10 -16 -2
-57 -7 -90 -10 -33 -3 -78 -8 -100 -11 -41 -5 -73 -9 -182 -19 -34 -3 -70 -7
-80 -9 -10 -2 -47 -7 -83 -10 -36 -4 -76 -9 -90 -11 -14 -3 -56 -7 -95 -10
-38 -3 -81 -8 -95 -10 -14 -2 -47 -7 -75 -9 -27 -3 -88 -10 -135 -15 -47 -6
-116 -13 -155 -17 -38 -3 -72 -8 -75 -9 -3 -2 -43 -6 -90 -10 -47 -4 -93 -9
-103 -11 -10 -2 -46 -6 -80 -9 -34 -3 -73 -8 -87 -10 -25 -4 -89 -11 -182 -20
-29 -3 -75 -8 -103 -11 -55 -7 -65 -8 -175 -19 -41 -4 -82 -9 -90 -11 -8 -1
-20 -3 -25 -3 -6 -1 -11 -9 -12 -18 -1 -10 -9 -58 -18 -108 -9 -49 -18 -101
-20 -115 -2 -14 -17 -101 -34 -195 -56 -318 -83 -470 -88 -500 -2 -16 -22
-129 -43 -250 -39 -219 -46 -257 -55 -305 -2 -14 -16 -92 -30 -175 -14 -82
-34 -199 -45 -260 -11 -60 -23 -126 -26 -145 -3 -19 -7 -46 -10 -60 -2 -14
-18 -104 -34 -200 -17 -96 -40 -221 -50 -278 -11 -57 -20 -107 -20 -112 0 -4
100 -91 223 -191 122 -101 231 -191 242 -201 30 -25 225 -186 270 -224 22 -18
74 -60 115 -94 41 -35 93 -77 115 -95 187 -155 605 -501 625 -518 14 -12 62
-51 105 -87 44 -35 85 -69 91 -75 7 -5 31 -26 55 -45 24 -19 97 -80 164 -136
66 -55 126 -103 132 -107 6 -4 60 11 120 32 59 22 257 92 438 156 551 196 579
205 610 218 17 6 35 13 40 14 6 1 55 18 110 38 55 20 111 40 125 45 14 4 84
29 155 55 167 60 400 143 590 210 368 130 439 156 441 158 2 1 12 59 24 127
26 154 27 159 34 190 3 14 8 41 10 60 3 19 10 60 16 90 6 30 13 71 16 90 3 19
7 46 10 60 2 14 6 36 9 50 3 14 7 36 10 50 2 14 7 41 10 60 7 43 23 136 30
170 6 27 7 34 30 165 14 85 18 107 30 172 3 16 14 80 25 143 11 63 22 126 25
140 5 31 45 258 50 285 1 11 10 58 19 105 8 47 18 101 21 120 3 19 8 42 10 50
2 8 6 37 10 64 3 27 8 53 11 58 3 4 6 22 8 40 2 18 6 47 10 63 3 17 8 46 11
65 3 19 8 46 10 60 12 58 15 77 20 105 3 17 10 54 15 84 6 30 10 56 10 58 0 2
-190 97 -422 212 -233 115 -738 365 -1123 556 -385 191 -713 348 -730 350 -16
2 -59 -1 -95 -5z"/>
</g>
</svg>
