<?xml version="1.0" encoding="utf-8"?>
<!-- Generator: Adobe Illustrator 22.1.0, SVG Export Plug-In . SVG Version: 6.00 Build 0)  -->
<svg version="1.1" id="Layer_1" xmlns="http://www.w3.org/2000/svg" xmlns:xlink="http://www.w3.org/1999/xlink" x="0px" y="0px"
	 viewBox="0 0 160 160" style="enable-background:new 0 0 160 160;" xml:space="preserve">
<style type="text/css">
	.st0{fill:#0880CB;}
</style>
<path id="score" class="st0" d="M80,0c-3.5,0-7,1-10,3.1l-8.4,5.9c-2.9,2.1-6.4,3.2-10.1,3.1l-10.4,0c-7.4,0-13.9,4.6-16.2,11.3
	L21.7,33c-1.1,3.3-3.3,6.2-6.2,8.2L7,47.1c-6,4.2-8.5,11.5-6.2,18.3l3.3,9.5c1.1,3.3,1.1,6.9,0,10.2l-3.3,9.5
	c-2.3,6.7,0.2,14.1,6.2,18.3l8.5,5.9c2.9,2,5.1,4.9,6.2,8.2l3.2,9.5c2.3,6.8,8.8,11.3,16.2,11.3l10.4,0c3.6,0,7.1,1.1,10.1,3.1
	l8.4,5.9c6,4.2,14.1,4.2,20,0l8.4-5.9c2.9-2.1,6.4-3.2,10.1-3.1l10.4,0c7.4,0,13.9-4.6,16.2-11.3l3.2-9.5c1.1-3.3,3.3-6.2,6.2-8.2
	l8.5-5.9c6-4.2,8.5-11.5,6.2-18.3l-3.3-9.5c-1.1-3.3-1.1-6.9,0-10.2l3.3-9.5c2.3-6.7-0.2-14.1-6.2-18.3l-8.5-5.9
	c-2.9-2-5.1-4.9-6.2-8.2l-3.2-9.5c-2.3-6.8-8.8-11.3-16.2-11.3l-10.4,0c-3.6,0-7.1-1.1-10.1-3.1L90,3.1C87,1,83.5,0,80,0L80,0z
	 M80,24.5c31.8,0,57.7,24.9,57.7,55.5c0,30.6-25.9,55.5-57.7,55.5S22.3,110.6,22.3,80C22.3,49.4,48.2,24.5,80,24.5z"/>
</svg>
