<?xml version="1.0" encoding="UTF-8"?>
<svg width="38px" height="46px" viewBox="0 0 38 46" version="1.1" xmlns="http://www.w3.org/2000/svg" xmlns:xlink="http://www.w3.org/1999/xlink">
    <!-- Generator: Sketch 48.2 (47327) - http://www.bohemiancoding.com/sketch -->
    <title>Combined Shape</title>
    <desc>Created with Sketch.</desc>
    <defs></defs>
    <g id="Page/nmnt" stroke="none" stroke-width="1" fill="none" fill-rule="evenodd" transform="translate(-870.000000, -1797.000000)">
        <g id="Group-5-Copy" transform="translate(252.000000, 1797.000000)" fill="#00807B">
            <g id="Group" transform="translate(618.000000, 0.000000)">
                <path d="M0.0288255126,17.9444444 C0.576533979,7.94201157 8.86078889,0 19,0 C29.1392111,0 37.423466,7.94201157 37.9711745,17.9444444 C37.9902928,17.9444444 38,17.9444444 38,17.9444444 C38,18.1317652 37.9978966,18.3187781 37.9936897,18.5054832 C37.9978881,18.6698118 38,18.8346593 38,19 C38,21.6833833 37.4437275,24.2368423 36.4402085,26.5513507 C33.8508033,33.5060334 28.0374005,39.9889165 19,46 C10.4201987,40.1343905 4.74617331,33.9511751 1.97792388,27.4503537 C0.711925368,24.9050831 0,22.0356811 0,19 C0,18.8326567 0.00216340895,18.6658188 0.00646378409,18.4995125 C0.0021545947,18.3147253 -5.75812155e-14,18.1297026 -5.68434189e-14,17.9444444 C-5.68434189e-14,17.9444444 0.00970723185,17.9444444 0.0288113959,17.9444444 Z" id="Combined-Shape"></path>
            </g>
        </g>
    </g>
</svg>